<svg width="48" height="51" viewBox="0 0 48 51" fill="none" xmlns="http://www.w3.org/2000/svg">
<path d="M21.8 31.4C28.4 31.4 39.4 40.2 39.4 40.2V5C39.4 5 28.4 13.8 21.8 13.8M21.8 31.4V13.8M21.8 31.4H10.8C5.9402 31.4 2 29.4442 2 22.6C2 15.7558 5.9402 13.8 10.8 13.8H21.8M8.6 31.4L15.2 49H24L17.4 31.4M39.4 29.2C40.2667 29.2 41.125 29.0293 41.9257 28.6976C42.7265 28.3659 43.454 27.8798 44.0669 27.2669C44.6798 26.654 45.1659 25.9265 45.4976 25.1257C45.8293 24.325 46 23.4667 46 22.6C46 21.7333 45.8293 20.875 45.4976 20.0743C45.1659 19.2735 44.6798 18.546 44.0669 17.9331C43.454 17.3202 42.7265 16.8341 41.9257 16.5024C41.125 16.1707 40.2667 16 39.4 16M21.8 40.2C24 40.2 28.4 38 28.4 33.6" stroke="#008C5D" stroke-width="4"/>
</svg>
