<svg width="36" height="36" viewBox="0 0 36 36" fill="none" xmlns="http://www.w3.org/2000/svg">
<path d="M32 1.17186L1.17188 32L4.00027 34.8284L34.8284 4.00026L32 1.17186Z" fill="#008C5D"/>
<path d="M8 16C12.418 16 16 12.418 16 8C16 3.582 12.418 0 8 0C3.582 0 0 3.582 0 8C0 12.418 3.582 16 8 16ZM8 4C10.206 4 12 5.794 12 8C12 10.206 10.206 12 8 12C5.794 12 4 10.206 4 8C4 5.794 5.794 4 8 4Z" fill="#008C5D"/>
<path d="M28 36C32.418 36 36 32.418 36 28C36 23.582 32.418 20 28 20C23.582 20 20 23.582 20 28C20 32.418 23.582 36 28 36ZM28 24C30.206 24 32 25.794 32 28C32 30.206 30.206 32 28 32C25.794 32 24 30.206 24 28C24 25.794 25.794 24 28 24Z" fill="#008C5D"/>
</svg>
