<svg width="50" height="50" viewBox="0 0 50 50" fill="none" xmlns="http://www.w3.org/2000/svg">
<path d="M17.2631 0H5.78093C4.24845 0.00234265 2.77941 0.612155 1.69578 1.69578C0.612155 2.77941 0.00234265 4.24845 0 5.78093L0 17.2631C0.00156169 18.7961 0.611029 20.2659 1.69474 21.3501C2.77845 22.4344 4.24794 23.0446 5.78093 23.0469H17.2631C18.7966 23.0454 20.2668 22.4355 21.3512 21.3512C22.4355 20.2668 23.0454 18.7966 23.0469 17.2631V5.78093C23.0446 4.24794 22.4344 2.77845 21.3501 1.69474C20.2659 0.611029 18.7961 0.00156169 17.2631 0ZM19.1379 17.2631C19.1371 17.7601 18.9393 18.2365 18.5879 18.5879C18.2365 18.9393 17.7601 19.1371 17.2631 19.1379H5.78093C5.28393 19.1371 4.80752 18.9393 4.45609 18.5879C4.10467 18.2365 3.90689 17.7601 3.90611 17.2631V5.78093C3.90689 5.28393 4.10467 4.80752 4.45609 4.45609C4.80752 4.10467 5.28393 3.90689 5.78093 3.90611H17.2631C17.7601 3.90689 18.2365 4.10467 18.5879 4.45609C18.9393 4.80752 19.1371 5.28393 19.1379 5.78093V17.2631Z" fill="#008C5D"/>
<path d="M44.1395 0H32.8108C31.2575 0.00234448 29.7685 0.62065 28.6704 1.71931C27.5723 2.81797 26.9547 4.30729 26.9531 5.86064V17.1863C26.9547 18.7396 27.5723 20.229 28.6704 21.3276C29.7685 22.4263 31.2575 23.0446 32.8108 23.0469H44.1395C45.6933 23.0454 47.1831 22.4274 48.2818 21.3287C49.3806 20.2299 49.9985 18.7402 50.0001 17.1863V5.86064C49.9985 4.30678 49.3806 2.81701 48.2818 1.71827C47.1831 0.619524 45.6933 0.00156324 44.1395 0ZM46.094 17.1863C46.094 17.7047 45.888 18.2018 45.5215 18.5684C45.1549 18.9349 44.6578 19.1408 44.1395 19.1408H32.8108C32.293 19.14 31.7966 18.9338 31.4307 18.5673C31.0648 18.2009 30.8592 17.7042 30.8592 17.1863V5.86064C30.8592 5.34278 31.0648 4.84608 31.4307 4.47962C31.7966 4.11316 32.293 3.90689 32.8108 3.90611H44.1395C44.6578 3.90611 45.1549 4.11203 45.5215 4.47858C45.888 4.84513 46.094 5.34227 46.094 5.86064V17.1863Z" fill="#008C5D"/>
<path d="M17.2631 26.9531H5.78093C4.24845 26.9555 2.77941 27.5653 1.69578 28.6489C0.612155 29.7326 0.00234265 31.2016 0 32.7341L0 44.2161C0.00234265 45.7486 0.612155 47.2177 1.69578 48.3014C2.77941 49.385 4.24845 49.9948 5.78093 49.9971H17.2631C18.7955 49.9948 20.2646 49.385 21.3482 48.3014C22.4318 47.2177 23.0416 45.7486 23.044 44.2161V32.7341C23.0416 31.2016 22.4318 29.7326 21.3482 28.6489C20.2646 27.5653 18.7955 26.9555 17.2631 26.9531ZM19.1379 44.2161C19.1371 44.7131 18.9393 45.1896 18.5879 45.541C18.2365 45.8924 17.7601 46.0902 17.2631 46.091H5.78093C5.28393 46.0902 4.80752 45.8924 4.45609 45.541C4.10467 45.1896 3.90689 44.7131 3.90611 44.2161V32.7341C3.90689 32.2371 4.10467 31.7606 4.45609 31.4092C4.80752 31.0578 5.28393 30.86 5.78093 30.8592H17.2631C17.7601 30.86 18.2365 31.0578 18.5879 31.4092C18.9393 31.7606 19.1371 32.2371 19.1379 32.7341V44.2161Z" fill="#008C5D"/>
<path d="M44.1395 26.9531H32.8108C31.2575 26.9555 29.7685 27.5738 28.6704 28.6725C27.5723 29.7711 26.9547 31.2604 26.9531 32.8137V44.1424C26.9547 45.6957 27.5723 47.1851 28.6704 48.2837C29.7685 49.3824 31.2575 50.0007 32.8108 50.003H44.1395C45.6933 50.0015 47.1831 49.3835 48.2818 48.2848C49.3806 47.186 49.9985 45.6962 50.0001 44.1424V32.8137C49.9985 31.2599 49.3806 29.7701 48.2818 28.6714C47.1831 27.5726 45.6933 26.9547 44.1395 26.9531ZM46.094 44.1395C46.094 44.6578 45.888 45.1549 45.5215 45.5215C45.1549 45.888 44.6578 46.094 44.1395 46.094H32.8108C32.293 46.0932 31.7966 45.8869 31.4307 45.5205C31.0648 45.154 30.8592 44.6573 30.8592 44.1395V32.8108C30.86 32.2935 31.0659 31.7976 31.4317 31.4317C31.7976 31.0659 32.2935 30.86 32.8108 30.8592H44.1395C44.6573 30.8592 45.154 31.0648 45.5205 31.4307C45.8869 31.7966 46.0932 32.293 46.094 32.8108V44.1395Z" fill="#008C5D"/>
</svg>
