<svg width="62" height="54" viewBox="0 0 62 54" fill="none" xmlns="http://www.w3.org/2000/svg">
<path fill-rule="evenodd" clip-rule="evenodd" d="M12.6144 5.45294C7.83037 7.64093 4.32558 12.8451 4.32558 19.051C4.32558 25.3911 6.91868 30.2778 10.636 34.4661C13.6998 37.9178 17.4086 40.7785 21.0256 43.5686C21.8847 44.2313 22.7386 44.89 23.5774 45.5516C25.0944 46.7481 26.4475 47.7981 27.7518 48.5607C29.0567 49.3238 30.1072 49.6721 31 49.6721C31.8928 49.6721 32.9433 49.3238 34.2482 48.5607C35.5525 47.7981 36.9056 46.7481 38.4227 45.5516C39.2616 44.89 40.1154 44.2313 40.9745 43.5686C44.5916 40.7785 48.3003 37.9178 51.364 34.4661C55.0814 30.2778 57.6744 25.3911 57.6744 19.051C57.6744 12.8451 54.1695 7.64093 49.3855 5.45294C44.7378 3.32733 38.4928 3.89025 32.5584 10.0594C32.1506 10.4832 31.588 10.7227 31 10.7227C30.412 10.7227 29.8494 10.4832 29.4416 10.0594C23.5071 3.89025 17.2622 3.32733 12.6144 5.45294ZM31 5.55286C24.3327 -0.41556 16.8668 -1.25047 10.8161 1.51676C4.42568 4.43943 0 11.2259 0 19.051C0 26.7417 3.20237 32.6089 7.4017 37.3398C10.7646 41.1285 14.8806 44.2997 18.5159 47.1001C19.3399 47.7349 20.1393 48.3509 20.8995 48.9505C22.3767 50.1155 23.9624 51.3579 25.5694 52.2974C27.1759 53.2366 29.0091 54 31 54C32.9909 54 34.8241 53.2366 36.4306 52.2974C38.0377 51.3579 39.6232 50.1155 41.1005 48.9505C41.8607 48.3509 42.66 47.7349 43.4842 47.1001C47.1194 44.2997 51.2354 41.1285 54.5984 37.3398C58.7976 32.6089 62 26.7417 62 19.051C62 11.2259 57.5744 4.43943 51.1837 1.51676C45.1331 -1.25047 37.6675 -0.41556 31 5.55286Z" fill="#008C5D"/>
</svg>
