<svg width="55" height="55" viewBox="0 0 55 55" fill="none" xmlns="http://www.w3.org/2000/svg">
<g clip-path="url(#clip0_5697_12878)">
<path fill-rule="evenodd" clip-rule="evenodd" d="M19.6679 49.8931C20.0314 49.8931 20.3285 50.1984 20.3285 50.5754C20.3285 50.95 20.0314 51.2554 19.6679 51.2554C19.4929 51.2552 19.3252 51.1835 19.2015 51.056C19.0778 50.9285 19.0082 50.7557 19.008 50.5754C19.0051 50.1993 19.3013 49.8931 19.6679 49.8931ZM47.4869 21.4032C46.9267 21.1319 45.5452 20.7626 45.1122 20.3163C44.7328 19.9255 44.4129 19.478 44.1633 18.9887C43.9136 19.4779 43.5936 19.9255 43.2142 20.3163C42.2574 21.3025 40.0621 21.9149 38.6089 21.9149C37.1557 21.9149 34.9604 21.3025 34.0034 20.3163C33.6239 19.9256 33.3039 19.478 33.0544 18.9887C32.8047 19.478 32.4848 19.9255 32.1054 20.3163C31.1484 21.3025 28.9531 21.9149 27.4999 21.9149C26.0468 21.9149 23.8515 21.3025 22.8946 20.3163C22.5152 19.9255 22.1953 19.4779 21.9455 18.9887C21.696 19.478 21.376 19.9256 20.9965 20.3163C20.0395 21.3025 17.8443 21.9149 16.391 21.9149C14.9382 21.9149 12.7429 21.3025 11.7858 20.3163C11.4064 19.9255 11.0864 19.4779 10.8367 18.9887C10.5871 19.478 10.2671 19.9256 9.88765 20.3163C9.25783 20.9657 7.59548 21.4525 6.71645 21.71C4.94946 21.9326 2.8658 21.6709 1.55128 20.3163C0.59415 19.3304 0 17.9689 0 16.4716V14.3598L0.000644531 14.3304V14.3278C-3.29396e-06 14.2204 0.0265055 14.1147 0.0775586 14.0211L3.79812 1.73577C4.10491 0.723423 4.85171 0.0743903 6.29782 0.001107L48.411 0C49.7098 0.144463 50.5553 0.706154 50.9051 1.72459L54.9107 14.0043C54.9642 14.0955 54.9923 14.1953 54.9968 14.2949L54.997 14.2964C54.9991 14.3173 55 14.3386 55 14.3598V16.4716C55 17.9689 54.4056 19.3304 53.4486 20.3163C51.8895 21.924 49.5187 21.8827 47.4869 21.4032ZM51.4941 24.2423V52.2058C51.4941 52.9712 51.1864 53.6709 50.6953 54.1771C50.2039 54.6834 49.525 55 48.7822 55H6.2193C5.47551 55 4.79531 54.6852 4.30364 54.1784L4.22866 54.0933C3.78211 53.594 3.50679 52.9301 3.50679 52.2058V24.2618C4.25326 24.4233 5.01263 24.4891 5.74739 24.4815V52.2058C5.74739 52.3225 5.78768 52.4296 5.85385 52.5122L5.8879 52.5458C5.97459 52.6351 6.09275 52.6909 6.2193 52.6909H48.7822C48.9066 52.6909 49.0237 52.6345 49.111 52.5445C49.1984 52.4545 49.2534 52.3338 49.2534 52.2058V24.3818C49.9753 24.4191 50.7062 24.3862 51.4232 24.2556L51.4941 24.2423ZM20.0066 29.5513C23.5992 24.9765 27.7399 22.4888 30.8491 26.5579C34.5813 26.7607 36.1621 32.5535 33.2218 35.1395L33.2061 35.2788C33.3076 35.2496 33.4116 35.2305 33.5166 35.2217C33.7419 35.2037 33.9585 35.2416 34.1437 35.3435C34.3464 35.4552 34.5021 35.6363 34.5823 35.894C34.6586 36.1373 34.662 36.4468 34.5625 36.8256L34.0946 38.1944C34.0174 38.4209 33.9463 38.5802 33.7895 38.7089C33.6287 38.8408 33.4353 38.8901 33.1371 38.8739L33.0366 38.864C32.9966 40.3759 32.2734 41.0762 31.328 41.9911L31.3228 41.9961C31.3203 42.0796 31.3216 42.1631 31.3265 42.2465C31.5945 42.6235 31.8879 42.9214 32.2201 43.1365C32.9568 43.536 33.8984 43.6195 34.9029 43.7249L33.6326 48.4034H21.9164L20.3046 43.6909C21.436 43.4774 22.5932 43.1796 23.7013 42.3782C23.762 42.3257 23.8211 42.2715 23.8788 42.2156L23.9 41.6473C23.1742 40.97 22.6081 40.2612 22.4795 38.8651L22.4231 38.8655C22.2282 38.8626 22.0404 38.817 21.8642 38.7135C21.582 38.548 21.385 38.2669 21.2523 37.9503C21.096 37.5775 21.0256 37.1418 21.0089 36.8132L21.0085 36.8029C21.0036 36.6821 21.0038 36.451 21.0096 36.2315C21.0149 36.0411 21.0246 35.8562 21.0389 35.7507C21.0436 35.7161 21.0524 35.6833 21.0648 35.6527C21.2571 35.1015 21.5475 34.9098 21.9278 34.9078L21.7163 34.7626C21.5762 32.9608 21.9055 30.1435 20.0066 29.5513ZM30.6301 42.6553C29.7618 43.4014 28.8278 43.7649 27.8798 43.7653C26.7908 43.7657 25.7013 43.2863 24.6889 42.3584L24.5836 42.2635C24.9929 45.9814 30.0152 46.2806 30.6301 42.6553ZM35.5907 49.8931C35.9542 49.8931 36.2498 50.1984 36.2498 50.5754C36.2498 50.95 35.9542 51.2554 35.5907 51.2554C35.2263 51.2554 34.9292 50.95 34.9292 50.5754C34.9292 50.1993 35.2263 49.8931 35.5907 49.8931ZM18.4349 44.049C16.3514 44.5374 13.9599 45.593 12.929 50.2489L12.5333 51.8113H17.5355V49.3958C17.5355 48.8504 17.9712 48.4034 18.5006 48.4034H19.5299C19.4855 46.6768 18.6479 44.8653 18.4349 44.049ZM42.4756 51.8113L42.02 49.9818C41.1221 45.8139 38.7363 44.5276 36.8448 44.0349C36.6536 44.8503 36.0657 46.7792 36.0346 48.3996H36.7601C37.2895 48.3996 37.7237 48.8473 37.7237 49.3927V51.8113H42.4756ZM22.5844 35.8677C22.1872 35.7252 21.9051 35.6581 21.7974 35.9015C21.7888 35.9877 21.7826 36.1179 21.779 36.2531C21.7737 36.4524 21.7737 36.6619 21.7782 36.769L21.7784 36.7727C21.791 37.0249 21.8442 37.3569 21.9613 37.6362C22.0339 37.8094 22.1279 37.955 22.2444 38.0234C22.3012 38.0567 22.3647 38.0718 22.4322 38.0726C22.5171 38.0737 22.6122 38.0556 22.7129 38.0252C22.7701 38.0048 22.8312 37.9987 22.8912 38.0073C22.9512 38.0158 23.0083 38.0389 23.058 38.0745C23.1078 38.1101 23.1486 38.1573 23.1773 38.2122C23.206 38.2672 23.2218 38.3283 23.2232 38.3907C23.2611 40.0395 23.973 40.6712 24.8381 41.439L25.2018 41.7645C26.0709 42.5609 26.9855 42.9726 27.8798 42.9724C28.7495 42.9721 29.62 42.5804 30.4318 41.7724L30.8 41.4126C31.7081 40.5336 32.3764 39.887 32.2486 38.3124C32.2426 38.2241 32.2649 38.1361 32.312 38.062C32.368 37.9743 32.4556 37.913 32.5555 37.8917C32.6553 37.8704 32.7593 37.8909 32.8446 37.9486C32.9022 37.9882 32.964 38.0209 33.0289 38.0461C33.0788 38.0669 33.1283 38.0783 33.1764 38.081L33.31 38.0872C33.3147 38.0832 33.3355 38.0241 33.3676 37.9301L33.8197 36.6094C33.8758 36.3915 33.881 36.2368 33.8497 36.1364C33.836 36.0903 33.8116 36.0599 33.7815 36.0433C33.733 36.0166 33.66 36.0078 33.574 36.0146C33.3801 36.0301 33.1531 36.127 32.951 36.2842C32.8893 36.3321 32.8151 36.3597 32.738 36.3637C32.6609 36.3676 32.5844 36.3476 32.5184 36.3062C32.4524 36.2649 32.4 36.2041 32.3679 36.1317C32.3359 36.0593 32.3256 35.9786 32.3385 35.9002C32.6725 33.8885 32.5198 32.5785 32.1049 31.6865C31.7459 30.915 31.174 30.4438 30.5525 30.0916C29.1512 31.1941 28.1623 31.3202 27.1763 31.4455C26.3652 31.5486 25.5552 31.6519 24.4845 32.4155C23.9759 32.7774 23.6389 33.2152 23.4671 33.7237C23.2937 34.2369 23.2812 34.835 23.4234 35.5127C23.4456 35.5931 23.4424 35.6786 23.4144 35.7569C23.3791 35.8558 23.3072 35.9362 23.2145 35.9805C23.1217 36.0248 23.0157 36.0294 22.9196 35.9933C22.8094 35.9515 22.6953 35.9042 22.5844 35.8677Z" fill="#008C5D"/>
</g>
<defs>
<clipPath id="clip0_5697_12878">
<rect width="55" height="55" fill="white"/>
</clipPath>
</defs>
</svg>
