<svg width="53" height="58" viewBox="0 0 53 58" fill="none" xmlns="http://www.w3.org/2000/svg">
<path d="M49.3899 42.5451C47.5419 39.592 45.6047 38.1388 45.5157 38.0685C44.8477 37.5763 43.9348 37.7404 43.445 38.4435C42.9774 39.1467 43.1333 40.1076 43.8012 40.6232C43.868 40.6701 50.236 45.5451 49.7907 55.9045C49.7462 56.7716 50.3919 57.4982 51.1934 57.5216C51.2157 57.5216 51.2379 57.5216 51.2602 57.5216C52.0395 57.5216 52.7075 56.8654 52.7297 56.0451C53.0192 49.7638 51.0821 45.2404 49.3899 42.5451Z" fill="#008C5D"/>
<path d="M26.6795 0.5C22.4713 0.5 18.508 2.23438 15.5244 5.375C12.5408 8.49219 10.8931 12.6875 10.8931 17.1172C10.8931 21.5469 12.5408 25.7188 15.5244 28.8594C16.5041 29.8906 17.5728 30.7578 18.7306 31.4609C16.9494 32.0938 14.7896 33.0313 12.6076 34.4375C9.40133 36.5 6.75172 39.0781 4.72555 42.1484C2.20954 45.9688 0.695474 50.5156 0.227896 55.6484C0.161099 56.4922 0.740005 57.2656 1.56383 57.3359C1.60836 57.3359 1.6529 57.3359 1.69743 57.3359C2.45446 57.3359 3.10016 56.7266 3.16696 55.9297C3.59 51.3359 4.90368 47.3047 7.10797 43.9531C8.86696 41.2578 11.1826 38.9844 14.0326 37.1563C18.3076 34.4141 22.4935 33.5469 23.4955 33.3828C24.5197 33.5938 25.5884 33.7109 26.6572 33.7109C30.8654 33.7109 34.8287 31.9766 37.8123 28.8359C40.7959 25.6953 42.4435 21.5234 42.4435 17.0937C42.4435 12.6641 40.7959 8.49219 37.8123 5.35156C34.8509 2.23438 30.8877 0.5 26.6795 0.5ZM26.6795 30.6172C19.599 30.6172 13.8545 24.5703 13.8545 17.1172C13.8545 9.66406 19.599 3.61719 26.6795 3.61719C33.7599 3.61719 39.5045 9.66406 39.5045 17.1172C39.5045 24.5703 33.7377 30.6172 26.6795 30.6172Z" fill="#008C5D"/>
</svg>
