<svg width="78" height="32" viewBox="0 0 78 32" fill="none" xmlns="http://www.w3.org/2000/svg">
<path d="M11.9563 8.57038L13.5529 20.1648L23.3841 20.2172L27.669 0H21.1816L18.5491 12.4159L16.7335 0H6.95673L2.67188 20.1077L9.256 20.1426L11.9563 8.57038Z" fill="#008C5D"/>
<path d="M41.7373 20.2172L42.843 14.998H34.9799L35.4843 12.7457H42.5064L43.7148 7.47146H36.6666L37.122 5.43886H44.8695L46.0222 0H30.1449L25.8594 20.2172H41.7373Z" fill="#008C5D"/>
<mask id="mask0_5697_13037" style="mask-type:luminance" maskUnits="userSpaceOnUse" x="47" y="0" width="31" height="21">
<path d="M47.4648 0.00390625H78.0009V20.295H47.4648V0.00390625Z" fill="white"/>
</mask>
<g mask="url(#mask0_5697_13037)">
<path d="M60.9422 7.81525L60.3491 20.2211H68.9927L78.0024 0.00390625H70.6001L66.0808 12.3648L67.0031 0.00390625H58.5932L53.7193 12.3648L54.6234 0.00390625H47.5664V20.2211H56.4008L60.9422 7.81525Z" fill="#008C5D"/>
</g>
<mask id="mask1_5697_13037" style="mask-type:luminance" maskUnits="userSpaceOnUse" x="61" y="22" width="10" height="10">
<path d="M61.9102 22.0117H70.3361V31.3613H61.9102V22.0117Z" fill="white"/>
</mask>
<g mask="url(#mask1_5697_13037)">
<path d="M69.1345 22.7004C68.487 22.2578 67.6191 22.0905 66.713 22.0898C64.9672 22.0925 63.0119 23.0081 62.9729 25.0427C62.9434 26.546 64.0067 27.1472 65.0451 27.4931C66.2495 27.8867 67.0549 28.0137 67.0059 28.5027C66.9965 28.9709 66.445 29.2268 65.9573 29.2275C65.952 29.2275 65.9466 29.2275 65.9405 29.2275C65.5241 29.2275 65.252 29.1966 65.0693 29.0387C64.8839 28.8446 64.7912 28.594 64.7973 28.1393L64.7993 28.0291H62.0439L62.0365 28.1332C62.0318 28.1984 62.0292 28.2636 62.0278 28.3274C61.9942 30.4695 63.7817 31.3548 65.7061 31.3575C67.5835 31.3548 69.6699 30.3546 69.7122 28.1877C69.7377 27.1196 69.199 26.2343 67.7018 25.7016C67.2719 25.5451 66.7446 25.4612 66.3342 25.3349C65.913 25.2066 65.6658 25.0481 65.6786 24.8123C65.6873 24.3461 66.1562 24.2266 66.5934 24.2205C66.5941 24.2205 66.5961 24.2205 66.5968 24.2205C66.8823 24.2205 67.1315 24.2696 67.2866 24.3918C67.4411 24.5134 67.5338 24.6726 67.5318 24.9715L67.5312 25.0212V25.128H70.1683L70.1723 25.0199L70.1743 24.9272C70.1952 23.8692 69.7821 23.1417 69.1345 22.7004Z" fill="#008C5D"/>
</g>
<path d="M4.77722 26.2647H3.90937L4.26067 24.7298H5.06673C5.61821 24.7412 6.08706 24.8239 6.07833 25.3948C6.05482 25.9181 5.80628 26.2472 4.77722 26.2647ZM8.2305 23.0042C7.76433 22.5219 7.09127 22.2969 6.29126 22.2969C6.29059 22.2969 6.28992 22.2969 6.28925 22.2969H1.97551L0 31.1534H2.81313L3.39484 28.5411H5.07143C7.36466 28.5378 8.89146 26.9948 8.92706 25.1893C8.94386 24.2146 8.69666 23.4872 8.2305 23.0042Z" fill="#008C5D"/>
<path d="M13.5886 26.0712H12.3399L12.6778 24.5726H14.0078C14.6365 24.5834 14.7635 24.9159 14.7702 25.2135C14.7554 25.6682 14.4242 26.0625 13.5886 26.0712ZM16.8088 22.7617C16.2862 22.405 15.5722 22.2975 14.7756 22.2969H10.3664L8.40234 31.1534H11.2034L11.8764 28.1408L12.921 28.1414C13.6182 28.1529 13.86 28.4357 13.8607 28.8185C13.8546 29.2337 13.7142 29.765 13.7062 30.1969C13.6988 30.5845 13.7048 30.8437 13.8069 31.0876L13.8338 31.1534H16.5771L16.5153 31.0009C16.4165 30.7598 16.393 30.3957 16.3998 29.988C16.4065 29.6253 16.436 29.2269 16.4421 28.8427C16.4582 28.1394 16.385 27.4254 15.8066 27.0922C16.9096 26.7859 17.6082 25.865 17.6243 24.6687C17.6431 23.7337 17.3348 23.1191 16.8088 22.7617Z" fill="#008C5D"/>
<mask id="mask2_5697_13037" style="mask-type:luminance" maskUnits="userSpaceOnUse" x="36" y="22" width="10" height="10">
<path d="M36.4531 22.1836H45.9108V31.3612H36.4531V22.1836Z" fill="white"/>
</mask>
<g mask="url(#mask2_5697_13037)">
<path d="M45.7778 22.2969H43.062L41.9826 27.1265C41.771 28.0837 41.4439 28.9865 40.4544 28.9865C40.4524 28.9865 40.4504 28.9865 40.4477 28.9865C39.5879 28.9764 39.592 28.4195 39.5805 28.077C39.5819 28.0326 39.5846 27.9937 39.5846 27.9594C39.5852 27.8506 39.6645 27.4053 39.7276 27.1487L40.8051 22.2969H37.9557L36.7083 27.8882C36.6687 28.087 36.6015 28.4229 36.5981 28.6123C36.5847 29.3297 36.8527 30.0243 37.4539 30.5327C38.0558 31.0406 38.9814 31.3596 40.2758 31.3596C40.2845 31.3596 40.2932 31.3596 40.302 31.3596C42.4662 31.3596 44.1206 30.3574 44.6144 28.1394L45.9114 22.2969H45.7778Z" fill="#008C5D"/>
</g>
<mask id="mask3_5697_13037" style="mask-type:luminance" maskUnits="userSpaceOnUse" x="45" y="22" width="10" height="10">
<path d="M45.7422 22.0117H54.3401V31.3613H45.7422V22.0117Z" fill="white"/>
</mask>
<g mask="url(#mask3_5697_13037)">
<path d="M51.5553 25.7332H54.2562V25.621C54.2636 22.994 52.5205 22.0898 50.6135 22.0898C50.5987 22.0898 50.584 22.0898 50.5692 22.0898C47.6022 22.0952 45.8054 24.4805 45.751 27.3164C45.7308 28.4899 46.0163 29.5009 46.6336 30.2209C47.2496 30.941 48.194 31.3581 49.4508 31.3581C49.4521 31.3581 49.4535 31.3581 49.4548 31.3581C49.4575 31.3581 49.4609 31.3581 49.4642 31.3581C53.0673 31.3581 53.8277 28.6773 53.9909 27.7833L54.0157 27.6543H51.2187L51.1993 27.741C51.0186 28.4751 50.5934 28.9816 49.829 28.985C48.7213 28.9836 48.5937 27.9814 48.597 27.2687C48.6064 26.6729 48.7495 25.9582 49.0599 25.4047C49.3742 24.8499 49.835 24.4637 50.5161 24.463C51.2577 24.4771 51.5539 24.8224 51.5573 25.5525L51.5553 25.6251V25.7332Z" fill="#008C5D"/>
</g>
<path d="M63.1019 22.2969H55.5283L54.9883 24.7298H57.3507L55.9267 31.1541H58.7754L60.1994 24.7291L62.5612 24.7298L63.1019 22.2969Z" fill="#008C5D"/>
<path d="M32.8443 27.7747C32.5319 28.302 32.0416 28.7184 31.2235 28.7205H30.0936L30.9884 24.7298H31.8656C32.7247 24.7506 33.2708 24.9797 33.2688 26.2298C33.2621 26.6113 33.154 27.2487 32.8443 27.7747ZM32.6831 22.2969H28.6676L26.6914 31.1541H31.0387C31.0434 31.1541 31.0488 31.1541 31.0542 31.1541C34.0567 31.1541 35.9261 29.1403 36.1135 26.2224C36.1196 26.1236 36.1243 26.0262 36.1256 25.9315C36.1679 23.2668 34.2294 22.3002 32.6831 22.2969Z" fill="#008C5D"/>
<mask id="mask4_5697_13037" style="mask-type:luminance" maskUnits="userSpaceOnUse" x="17" y="22" width="10" height="10">
<path d="M17.8867 22.0117H26.8286V31.3613H17.8867V22.0117Z" fill="white"/>
</mask>
<g mask="url(#mask4_5697_13037)">
<path d="M23.4953 27.9405C23.1668 28.5517 22.6791 28.983 21.9402 28.985C20.9891 28.9796 20.75 28.2918 20.7506 27.522C20.7607 26.8959 20.9018 26.1161 21.2269 25.5068C21.5547 24.8963 22.043 24.4643 22.7819 24.463C23.733 24.4677 23.9715 25.1562 23.9708 25.926C23.9608 26.5527 23.819 27.3319 23.4953 27.9405ZM25.7952 23.0235C25.1101 22.3807 24.1152 22.0898 22.8941 22.0898C19.9285 22.0952 17.963 24.5134 17.9073 27.4615C17.8844 28.7284 18.2431 29.7091 18.9263 30.3687C19.6087 31.0283 20.6035 31.3581 21.8274 31.3581C24.7937 31.3528 26.7584 28.9346 26.8142 25.9864C26.8377 24.6484 26.4803 23.6657 25.7952 23.0235Z" fill="#008C5D"/>
</g>
</svg>
