<svg width="48" height="40" viewBox="0 0 48 40" fill="none" xmlns="http://www.w3.org/2000/svg">
<path d="M47.3346 13.0551L40.0013 0.777344H8.0013L0.667969 13.0551C0.667969 15.944 2.8013 18.1107 5.33463 18.1107C7.86797 18.1107 10.0013 15.944 10.0013 13.0551C10.0013 15.7996 12.1346 18.1107 14.668 18.1107C17.2013 18.1107 19.3346 15.944 19.3346 13.0551C19.3346 15.7996 21.468 18.1107 24.0013 18.1107C26.5346 18.1107 28.668 15.944 28.668 13.0551C28.668 15.7996 30.8013 18.1107 33.3346 18.1107C35.868 18.1107 38.0013 15.944 38.0013 13.0551C38.0013 15.7996 40.1346 18.1107 42.668 18.1107C45.2013 18.1107 47.3346 15.944 47.3346 13.0551ZM42.668 23.8885C41.2013 23.8885 39.868 23.5996 38.668 23.0218V33.9996H9.33463V23.0218C8.13463 23.5996 6.8013 23.8885 5.33463 23.8885C4.93463 23.8885 4.4013 23.8885 4.0013 23.744V39.7773H44.0013V23.744C43.6013 23.8885 43.068 23.8885 42.668 23.8885Z" fill="#008C5D"/>
</svg>
