<svg width="61" height="60" viewBox="0 0 61 60" fill="none" xmlns="http://www.w3.org/2000/svg">
<path d="M30.7408 57.1578C45.6891 57.1578 57.6899 45.0525 57.6899 30.1051C57.6899 15.1577 45.6891 3.15775 30.7408 3.15775C15.7924 3.15775 3.68642 15.1578 3.68642 30.1051C3.68642 45.0524 15.7925 57.1578 30.7408 57.1578ZM30.7408 59.8946C14.3187 59.8946 1.05469 46.5262 1.05469 30.1051C1.05469 13.684 14.3187 0.420898 30.7408 0.420898C47.1628 0.420898 60.4269 13.6841 60.4269 30.1051C60.4269 46.5261 47.1628 59.8946 30.7408 59.8946ZM32.3199 13.263C31.3724 13.263 30.6355 13.5788 29.8986 14.2104C29.267 14.842 28.846 15.684 28.846 16.6314C28.846 17.5788 29.1618 18.3156 29.8987 19.0525C30.5302 19.6841 31.3724 19.9998 32.3199 19.9998C33.2673 19.9998 34.0042 19.684 34.7411 19.0525C35.3727 18.4209 35.6885 17.5788 35.6885 16.6314C35.6885 15.684 35.3727 14.9472 34.741 14.2104C34.0042 13.5788 33.2673 13.263 32.3198 13.263H32.3199ZM32.1093 43.3682C31.7935 43.0524 31.6882 42.4209 31.6882 41.5788C31.6882 41.263 31.6882 40.7367 31.7935 40.1052C31.8988 39.4735 32.004 38.8419 32.1093 38.3156L33.3726 31.7893C33.4778 31.1577 33.5831 30.5261 33.5831 29.7893C33.5831 29.0525 33.6883 28.5262 33.6883 28.3157C33.6883 26.9472 33.3725 25.7893 32.6356 24.9472C32.004 24.1051 31.0566 23.6841 29.7934 23.6841C29.1617 23.6841 28.4249 23.8946 27.5827 24.2104C26.8458 24.5262 26.0036 24.9472 25.1615 25.4735L24.8456 27.4735C25.0562 27.3683 25.372 27.1577 25.6878 27.0525C26.0037 26.9472 26.4247 26.8419 26.7406 26.8419C27.3722 26.8419 27.8985 27.0525 28.109 27.3683C28.3196 27.6841 28.4249 28.3156 28.4249 29.1577C28.4249 29.5788 28.4249 30.1051 28.3196 30.6314C28.2143 31.1577 28.109 31.7893 28.0037 32.4209L26.8459 38.9472C26.7406 39.684 26.6353 40.2104 26.6353 40.7367C26.53 41.263 26.53 41.7893 26.53 42.3156C26.53 43.6841 26.8459 44.7367 27.5827 45.684C28.3196 46.5262 29.267 46.9472 30.5302 46.9472C31.3724 46.9472 32.004 46.842 32.6356 46.5262C33.2673 46.2103 34.1094 45.7893 35.0569 45.1578L35.3727 43.1577L34.5305 43.5788C34.1094 43.6841 33.7936 43.7893 33.4778 43.7893C32.8462 43.8946 32.3199 43.6841 32.1093 43.3682Z" fill="#008C5D"/>
</svg>
