<svg width="64" height="61" viewBox="0 0 64 61" fill="none" xmlns="http://www.w3.org/2000/svg">
<path d="M29.7681 0.109207C26.7585 0.611189 24.2641 1.87935 22.0679 4.07222C19.4379 6.68781 18.1094 9.8318 18.1094 13.4778C18.1094 17.4672 19.6006 20.7961 23.2338 24.9969C24.6165 26.5821 29.2529 31.6284 30.9339 33.3721L32.0184 34.4817L34.0519 32.1568C37.414 28.2994 41.0471 24.0458 41.969 22.8305C43.8398 20.3998 45.2497 17.6786 45.6564 15.5914C45.7648 15.063 45.8733 14.0326 45.8733 13.2928C45.8733 9.64686 44.4092 6.34435 41.6707 3.75518C39.583 1.77367 37.1971 0.558348 34.4857 0.109207C33.347 -0.0228933 30.7984 -0.0493134 29.7681 0.109207ZM33.4283 7.24263C35.9499 7.77103 38.0647 9.80538 38.6612 12.2624C39.2034 14.5346 38.5256 16.7539 36.7904 18.4712C34.7027 20.5055 31.6931 21.0075 29.0631 19.7657C24.7792 17.7578 23.8303 12.3417 27.1652 9.06561C28.8733 7.40115 31.0966 6.74065 33.4283 7.24263Z" fill="#008C5D"/>
<path d="M44.7834 22.2235C44.4581 22.7255 44.1869 23.1482 44.1869 23.201C44.1869 23.2539 47.8743 25.1033 52.348 27.3226C56.8488 29.5418 60.5091 31.4177 60.482 31.4441C60.482 31.5233 54.5442 36.0412 49.474 39.8457L48.742 40.4005L43.2651 35.6713L37.7882 30.9421L37.4358 31.2856C37.2188 31.4705 37.0562 31.7083 37.0562 31.7611C37.0562 31.8404 39.415 33.954 42.3161 36.4639C45.6511 39.3437 47.4947 41.0346 47.4134 41.0874C47.0338 41.2988 31.4437 47.2961 31.4166 47.2433C31.3895 47.2169 27.0785 41.9593 21.8185 35.592C16.5586 29.1984 12.2747 23.9408 12.3018 23.9144C12.3289 23.8879 14.0099 23.8351 15.9892 23.7823L19.6224 23.703L18.9174 22.5934L18.2125 21.4573H15.2029C13.549 21.4573 11.6782 21.5101 11.0275 21.5366L9.86162 21.6158L5.03547 24.8391C0.0195304 28.168 -0.143149 28.3265 0.0466436 29.0399C0.18221 29.5683 21.7101 60.2948 22.0626 60.4798C22.5506 60.744 23.0929 60.559 23.6351 59.9249C23.9063 59.6343 26.0211 57.098 28.3528 54.3503L32.5825 49.3041L41.0689 46.0015L49.5554 42.699L56.1167 37.7321C59.7228 35.0108 62.9493 32.5802 63.2746 32.316C63.9525 31.7611 64.1423 31.312 63.8982 30.7836C63.7356 30.3873 63.2746 30.1495 51.9413 24.5484L45.3528 21.3252L44.7834 22.2235ZM20.1104 35.4599C25.3161 41.7743 29.7898 47.1905 30.061 47.5075L30.549 48.1152L26.6447 52.7651C24.5028 55.3278 22.7133 57.4414 22.6591 57.4679C22.6048 57.4943 4.03228 31.0214 3.0291 29.4626L2.81219 29.1455L6.66226 26.5828C8.77709 25.1825 10.5666 24.02 10.5937 24.02C10.6479 23.9936 14.9318 29.1455 20.1104 35.4599Z" fill="#008C5D"/>
</svg>
