<svg width="49" height="49" viewBox="0 0 49 49" fill="none" xmlns="http://www.w3.org/2000/svg">
<path d="M43.5543 1.59513L1.59375 43.5557L5.44352 47.4054L47.404 5.4449L43.5543 1.59513Z" fill="#008C5D"/>
<path d="M10.8889 21.7778C16.9023 21.7778 21.7778 16.9023 21.7778 10.8889C21.7778 4.8755 16.9023 0 10.8889 0C4.8755 0 0 4.8755 0 10.8889C0 16.9023 4.8755 21.7778 10.8889 21.7778ZM10.8889 5.44444C13.8915 5.44444 16.3333 7.88628 16.3333 10.8889C16.3333 13.8915 13.8915 16.3333 10.8889 16.3333C7.88628 16.3333 5.44444 13.8915 5.44444 10.8889C5.44444 7.88628 7.88628 5.44444 10.8889 5.44444Z" fill="#008C5D"/>
<path d="M38.1076 49.0004C44.121 49.0004 48.9965 44.1249 48.9965 38.1115C48.9965 32.0982 44.121 27.2227 38.1076 27.2227C32.0942 27.2227 27.2188 32.0982 27.2188 38.1115C27.2188 44.1249 32.0942 49.0004 38.1076 49.0004ZM38.1076 32.6671C41.1103 32.6671 43.5521 35.1089 43.5521 38.1115C43.5521 41.1142 41.1103 43.556 38.1076 43.556C35.105 43.556 32.6632 41.1142 32.6632 38.1115C32.6632 35.1089 35.105 32.6671 38.1076 32.6671Z" fill="#008C5D"/>
</svg>
