<svg width="71" height="71" viewBox="0 0 71 71" fill="none" xmlns="http://www.w3.org/2000/svg">
<path d="M59.2663 61.7533H11.6559C5.44384 61.7533 0.390625 56.7001 0.390625 50.488V20.4313C0.390625 14.22 5.44462 9.16602 11.6559 9.16602H59.2663C65.4776 9.16602 70.5309 14.22 70.5309 20.4313V50.488C70.5309 56.7001 65.4776 61.7533 59.2663 61.7533ZM11.6559 12.4603C7.26047 12.4603 3.68488 16.0359 3.68488 20.4313V50.488C3.68488 54.8834 7.26047 58.4598 11.6559 58.4598H59.2663C63.6618 58.4598 67.2374 54.8834 67.2374 50.488V20.4313C67.2374 16.0359 63.6618 12.4603 59.2663 12.4603H11.6559Z" fill="#008C5D"/>
<path d="M8.99589 20.5881C17.4158 28.7929 25.8358 36.997 34.2557 45.2019C35.8253 46.7309 38.2342 44.3275 36.6623 42.7953C28.2424 34.5912 19.8224 26.3864 11.4025 18.1823C9.8329 16.6525 7.42397 19.0567 8.99589 20.5881Z" fill="#008C5D"/>
<path d="M36.6679 45.2018C45.0878 36.9977 53.5078 28.7928 61.9277 20.5888C63.4989 19.0574 61.0915 16.6524 59.5211 18.1822C51.1012 26.3863 42.6812 34.5911 34.2613 42.7952C32.6902 44.3266 35.0975 46.7316 36.6679 45.2018Z" fill="#008C5D"/>
<path d="M61.8316 51.0095C56.2289 45.696 50.6255 40.3833 45.0229 35.0698C43.4338 33.5633 41.0233 35.9652 42.6163 37.4763C48.2189 42.7899 53.8223 48.1026 59.425 53.4161C61.014 54.9226 63.4245 52.5199 61.8316 51.0095Z" fill="#008C5D"/>
<path d="M11.6476 53.4154C17.2503 48.1018 22.8537 42.7891 28.4563 37.4756C30.0485 35.9652 27.6396 33.5618 26.0498 35.069C20.4471 40.3825 14.8437 45.6952 9.24104 51.0088C7.64886 52.5191 10.0578 54.9234 11.6476 53.4154Z" fill="#008C5D"/>
</svg>
