<svg width="53" height="58" viewBox="0 0 53 58" fill="none" xmlns="http://www.w3.org/2000/svg">
<path d="M49.5071 42.0451C47.6463 39.092 45.6958 37.6388 45.6061 37.5685C44.9335 37.0763 44.0143 37.2404 43.5211 37.9435C43.0502 38.6467 43.2072 39.6076 43.8798 40.1232C43.947 40.1701 50.3591 45.0451 49.9107 55.4045C49.8658 56.2716 50.516 56.9982 51.3231 57.0216C51.3455 57.0216 51.3679 57.0216 51.3904 57.0216C52.1751 57.0216 52.8476 56.3654 52.8701 55.5451C53.1615 49.2638 51.211 44.7404 49.5071 42.0451Z" fill="#008C5D"/>
<path d="M26.6398 0C22.4025 0 18.4118 1.73438 15.4076 4.875C12.4034 7.99219 10.7443 12.1875 10.7443 16.6172C10.7443 21.0469 12.4034 25.2188 15.4076 28.3594C16.3941 29.3906 17.4702 30.2578 18.636 30.9609C16.8424 31.5938 14.6677 32.5313 12.4706 33.9375C9.24218 36 6.57424 38.5781 4.53405 41.6484C2.00063 45.4688 0.476089 50.0156 0.00527561 55.1484C-0.0619834 55.9922 0.520928 56.7656 1.35046 56.8359C1.3953 56.8359 1.44013 56.8359 1.48497 56.8359C2.24724 56.8359 2.89741 56.2266 2.96467 55.4297C3.39065 50.8359 4.71341 46.8047 6.93295 43.4531C8.70411 40.7578 11.0358 38.4844 13.9055 36.6563C18.21 33.9141 22.4249 33.0469 23.4338 32.8828C24.4651 33.0938 25.5413 33.2109 26.6174 33.2109C30.8547 33.2109 34.8454 31.4766 37.8497 28.3359C40.8539 25.1953 42.513 21.0234 42.513 16.5937C42.513 12.1641 40.8539 7.99219 37.8497 4.85156C34.8679 1.73438 30.8772 0 26.6398 0ZM26.6398 30.1172C19.5104 30.1172 13.7261 24.0703 13.7261 16.6172C13.7261 9.16406 19.5104 3.11719 26.6398 3.11719C33.7693 3.11719 39.5536 9.16406 39.5536 16.6172C39.5536 24.0703 33.7469 30.1172 26.6398 30.1172Z" fill="#008C5D"/>
</svg>
