<svg width="46" height="46" viewBox="0 0 46 46" fill="none" xmlns="http://www.w3.org/2000/svg">
<path d="M45.7676 39.4983L41.3415 34.6902V19.4113C41.3415 10.6026 34.1401 3.33274 24.9308 2.43127V1.79752C24.9308 0.805717 24.0663 0 23.0001 0C21.9339 0 21.0694 0.805717 21.0694 1.79752V2.43121C11.8601 3.33274 4.65869 10.6026 4.65869 19.4112V34.6902L0.232613 39.4982C-0.0133009 39.7641 -0.0690557 40.1398 0.0884305 40.4584C0.245855 40.777 0.588054 40.9815 0.965155 40.9815H45.0351C45.4122 40.9815 45.7544 40.777 45.9118 40.4584C46.0693 40.1398 46.0127 39.7642 45.7676 39.4983ZM4.65869 38.2853L7.5547 34.6902V19.4113C7.5547 11.4821 14.4836 5.03105 23.0001 5.03105C31.5166 5.03105 38.4455 11.4821 38.4455 19.4113V34.6902L41.3415 38.2853H4.65869Z" fill="#008C5D"/>
<path d="M27.6581 40.9668C27.6582 40.9732 27.66 40.9794 27.66 40.9857C27.66 42.2749 25.5153 43.4059 23.0704 43.4059C20.6255 43.4059 18.4808 42.2749 18.4808 40.9857C18.4808 40.9794 18.4826 40.9731 18.4827 40.9668H16.5327C16.5327 40.9732 16.5312 40.9793 16.5312 40.9857C16.5312 43.3607 19.4036 45.221 23.0705 45.221C26.7373 45.221 29.6097 43.3607 29.6097 40.9857C29.6097 40.9793 29.6083 40.9732 29.6082 40.9668H27.6581Z" fill="#008C5D"/>
</svg>
