<svg width="33" height="41" viewBox="0 0 33 41" fill="none" xmlns="http://www.w3.org/2000/svg">
<path d="M29.5723 0H2.69336C1.20313 0 0 1.5125 0 3.38594V37.1937C0 39.0672 1.20313 40.5797 2.69336 40.5797H29.5859C31.0762 40.5797 32.2793 39.0672 32.2793 37.1937V3.38594C32.2656 1.5125 31.0625 0 29.5723 0ZM30.2422 35.0625C30.2422 36.6953 29.1895 38.0187 27.8906 38.0187H4.375C3.07617 38.0187 2.02344 36.6953 2.02344 35.0625V5.5C2.02344 3.86719 3.07617 2.54375 4.375 2.54375H27.8906C29.1895 2.54375 30.2422 3.86719 30.2422 5.5V35.0625Z" fill="#008C5D"/>
<path d="M6.72656 8.31836H25.5527V10.8449H6.72656V8.31836Z" fill="#008C5D"/>
<path d="M6.72656 14.9355H25.5527V17.4793H6.72656V14.9355Z" fill="#008C5D"/>
<path d="M6.72656 21.5527H25.5527V24.0793H6.72656V21.5527Z" fill="#008C5D"/>
<path d="M6.72656 28.1699H25.5527V30.6965H6.72656V28.1699Z" fill="#008C5D"/>
</svg>
