<svg width="74" height="74" viewBox="0 0 74 74" fill="none" xmlns="http://www.w3.org/2000/svg">
<path d="M66.1419 61.2633L52.3587 48.2585L56.0883 44.5289L56.1415 44.5822C56.6051 45.0446 57.2332 45.3042 57.8879 45.3042C58.5427 45.3042 59.1707 45.0446 59.6343 44.5822L60.6052 43.6128C61.0665 43.1486 61.3254 42.5208 61.3254 41.8664C61.3254 41.212 61.0665 40.5842 60.6052 40.12L49.5763 29.0881C49.4513 28.9647 49.3139 28.8546 49.1663 28.7595V10.3602C49.1663 9.37886 48.7765 8.43775 48.0826 7.74386C47.3887 7.04998 46.4476 6.66016 45.4663 6.66016H10.3563C9.37495 6.66016 8.43384 7.04998 7.73995 7.74386C7.04607 8.43775 6.65625 9.37886 6.65625 10.3602V63.6402C6.65625 64.6215 7.04607 65.5626 7.73995 66.2565C8.43384 66.9503 9.37495 67.3402 10.3563 67.3402H45.4618C46.4432 67.3402 47.3843 66.9503 48.0781 66.2565C48.772 65.5626 49.1619 64.6215 49.1619 63.6402V53.3246L61.2579 66.1458C61.5642 66.5009 61.9396 66.7898 62.3612 66.9952C62.7828 67.2005 63.2418 67.3179 63.7102 67.3402H63.7532C64.4695 67.3665 65.1763 67.1698 65.776 66.7771C66.3756 66.3844 66.8386 65.8152 67.1008 65.1481C67.363 64.481 67.4116 63.7489 67.2398 63.053C67.0681 62.3571 66.6844 61.7317 66.1419 61.2633Z" fill="#231F20"/>
<path d="M45.4662 65.8597H42.3878C42.2757 64.9381 41.8309 64.0893 41.137 63.4726C40.4432 62.8559 39.548 62.5137 38.6197 62.5104H38.5798C38.5556 61.7437 38.2348 61.0163 37.6848 60.4815C37.1348 59.9467 36.3987 59.6463 35.6316 59.6437H20.1937C19.4267 59.6467 18.6907 59.9475 18.141 60.4826C17.5913 61.0176 17.2708 61.7452 17.2471 62.5119H17.2071C16.2789 62.5148 15.3838 62.8567 14.6899 63.4731C13.996 64.0896 13.5512 64.9383 13.439 65.8597H10.3606C9.77184 65.8597 9.20718 65.6258 8.79085 65.2094C8.37452 64.7931 8.14063 64.2284 8.14063 63.6397V10.3596C8.14062 9.77087 8.37452 9.2062 8.79085 8.78987C9.20718 8.37354 9.77184 8.13965 10.3606 8.13965H45.4662C46.055 8.13965 46.6197 8.37354 47.036 8.78987C47.4523 9.2062 47.6862 9.77087 47.6862 10.3596V28.3786C47.0833 28.4097 46.5131 28.6621 46.0849 29.0876L45.1155 30.0584C44.886 30.2876 44.704 30.5597 44.5798 30.8592C44.4557 31.1588 44.3917 31.4799 44.3917 31.8041C44.3917 32.1284 44.4557 32.4494 44.5798 32.749C44.704 33.0485 44.886 33.3206 45.1155 33.5498L45.1687 33.6045L34.0406 44.7386L33.9859 44.6853C33.5227 44.2227 32.8948 43.9628 32.2402 43.9628C31.5856 43.9628 30.9577 44.2227 30.4945 44.6853L29.5251 45.6562C29.2957 45.8853 29.1137 46.1574 28.9895 46.457C28.8653 46.7565 28.8014 47.0776 28.8014 47.4018C28.8014 47.7261 28.8653 48.0472 28.9895 48.3467C29.1137 48.6462 29.2957 48.9184 29.5251 49.1475L40.5526 60.1794C40.7819 60.4089 41.0541 60.5909 41.3538 60.7151C41.6534 60.8393 41.9746 60.9033 42.299 60.9033C42.6234 60.9033 42.9446 60.8393 43.2443 60.7151C43.5439 60.5909 43.8162 60.4089 44.0454 60.1794L45.0148 59.21C45.4768 58.7462 45.7362 58.1183 45.7362 57.4636C45.7362 56.809 45.4768 56.181 45.0148 55.7172L44.9615 55.6639L47.6907 52.9348V63.6397C47.6907 63.9316 47.6331 64.2206 47.5212 64.4902C47.4094 64.7599 47.2455 65.0048 47.0389 65.211C46.8323 65.4172 46.587 65.5806 46.3171 65.6919C46.0473 65.8032 45.7581 65.8602 45.4662 65.8597Z" fill="white"/>
<path d="M16.0759 18.8863H39.7471C39.9433 18.8863 40.1315 18.8083 40.2703 18.6695C40.4091 18.5307 40.4871 18.3425 40.4871 18.1463C40.4871 17.95 40.4091 17.7618 40.2703 17.623C40.1315 17.4842 39.9433 17.4062 39.7471 17.4062H16.0759C15.8797 17.4062 15.6915 17.4842 15.5527 17.623C15.4139 17.7618 15.3359 17.95 15.3359 18.1463C15.3359 18.3425 15.4139 18.5307 15.5527 18.6695C15.6915 18.8083 15.8797 18.8863 16.0759 18.8863Z" fill="#231F20"/>
<path d="M16.0759 27.0943H39.7471C39.9433 27.0943 40.1315 27.0163 40.2703 26.8775C40.4091 26.7387 40.4871 26.5505 40.4871 26.3543C40.4871 26.158 40.4091 25.9698 40.2703 25.831C40.1315 25.6922 39.9433 25.6143 39.7471 25.6143H16.0759C15.8797 25.6143 15.6915 25.6922 15.5527 25.831C15.4139 25.9698 15.3359 26.158 15.3359 26.3543C15.3359 26.5505 15.4139 26.7387 15.5527 26.8775C15.6915 27.0163 15.8797 27.0943 16.0759 27.0943Z" fill="#231F20"/>
<path d="M16.0759 35.3042H39.7471C39.9433 35.3042 40.1315 35.2263 40.2703 35.0875C40.4091 34.9487 40.4871 34.7605 40.4871 34.5642C40.4871 34.368 40.4091 34.1797 40.2703 34.041C40.1315 33.9022 39.9433 33.8242 39.7471 33.8242H16.0759C15.8797 33.8242 15.6915 33.9022 15.5527 34.041C15.4139 34.1797 15.3359 34.368 15.3359 34.5642C15.3359 34.7605 15.4139 34.9487 15.5527 35.0875C15.6915 35.2263 15.8797 35.3042 16.0759 35.3042Z" fill="#231F20"/>
<path d="M16.0759 43.5122H29.7023C29.8986 43.5122 30.0868 43.4343 30.2256 43.2955C30.3643 43.1567 30.4423 42.9685 30.4423 42.7722C30.4423 42.576 30.3643 42.3877 30.2256 42.249C30.0868 42.1102 29.8986 42.0322 29.7023 42.0322H16.0759C15.8797 42.0322 15.6915 42.1102 15.5527 42.249C15.4139 42.3877 15.3359 42.576 15.3359 42.7722C15.3359 42.9685 15.4139 43.1567 15.5527 43.2955C15.6915 43.4343 15.8797 43.5122 16.0759 43.5122Z" fill="#231F20"/>
<path d="M27.7783 50.2402H16.0759C15.8797 50.2402 15.6915 50.3182 15.5527 50.457C15.4139 50.5958 15.3359 50.784 15.3359 50.9802C15.3359 51.1765 15.4139 51.3647 15.5527 51.5035C15.6915 51.6423 15.8797 51.7202 16.0759 51.7202H27.7783C27.9746 51.7202 28.1628 51.6423 28.3016 51.5035C28.4403 51.3647 28.5183 51.1765 28.5183 50.9802C28.5183 50.784 28.4403 50.5958 28.3016 50.457C28.1628 50.3182 27.9746 50.2402 27.7783 50.2402Z" fill="#231F20"/>
<path d="M46.2141 34.6511L35.0781 45.7871L43.9097 54.6187L55.0457 43.4827L46.2141 34.6511Z" fill="#008C5D"/>
<path d="M43.9631 56.7644C44.1488 56.95 44.2531 57.2018 44.2531 57.4644C44.2531 57.727 44.1488 57.9788 43.9631 58.1644L42.9937 59.1338C42.8053 59.3142 42.5546 59.4149 42.2937 59.4149C42.0329 59.4149 41.7821 59.3142 41.5937 59.1338L30.5632 48.1004C30.4714 48.0086 30.3985 47.8996 30.3488 47.7796C30.299 47.6596 30.2734 47.531 30.2734 47.4011C30.2734 47.2713 30.299 47.1426 30.3488 47.0227C30.3985 46.9027 30.4714 46.7936 30.5632 46.7018L31.5326 45.731C31.7184 45.5461 31.9699 45.4424 32.2319 45.4424C32.494 45.4424 32.7454 45.5461 32.9312 45.731L43.9631 56.7644Z" fill="#0A6642"/>
<path d="M59.5662 41.1662C59.7511 41.3523 59.8549 41.6039 59.8549 41.8662C59.8549 42.1286 59.7511 42.3802 59.5662 42.5663L58.5953 43.5357C58.4094 43.7209 58.1577 43.825 57.8953 43.825C57.6328 43.825 57.3811 43.7209 57.1952 43.5357L46.1648 32.5038C46.0729 32.4119 46 32.3029 45.9503 32.1829C45.9006 32.0629 45.875 31.9343 45.875 31.8045C45.875 31.6746 45.9006 31.546 45.9503 31.426C46 31.306 46.0729 31.197 46.1648 31.1052L47.1342 30.1343C47.32 29.9495 47.5714 29.8457 47.8335 29.8457C48.0956 29.8457 48.347 29.9495 48.5328 30.1343L59.5662 41.1662Z" fill="#0A6642"/>
<path d="M38.6226 63.9912C39.1607 63.9924 39.682 64.1789 40.0987 64.5194C40.5154 64.8598 40.8022 65.3334 40.9107 65.8605H14.9219C15.0301 65.3333 15.3168 64.8595 15.7336 64.519C16.1504 64.1785 16.6718 63.9921 17.21 63.9912H38.6226Z" fill="#008C5D"/>
<path d="M18.7344 62.5103C18.7544 62.1366 18.9165 61.7847 19.1875 61.5266C19.4585 61.2685 19.8179 61.1238 20.1922 61.1221H35.6301C36.0044 61.1238 36.364 61.2684 36.6353 61.5265C36.9065 61.7845 37.069 62.1365 37.0893 62.5103H18.7344Z" fill="#008C5D"/>
<path d="M65.1703 65.1722C64.9925 65.3814 64.7726 65.5508 64.525 65.6694C64.2774 65.788 64.0076 65.8531 63.7332 65.8604C63.4632 65.84 63.2002 65.7647 62.9603 65.6393C62.7203 65.5138 62.5085 65.3408 62.3376 65.1308L49.3047 51.3165L51.3145 49.3066L65.1288 62.3395C65.3386 62.5106 65.5114 62.7226 65.6369 62.9625C65.7623 63.2024 65.8377 63.4653 65.8585 63.7352C65.8438 64.0082 65.7755 64.2756 65.6574 64.5222C65.5393 64.7688 65.3738 64.9897 65.1703 65.1722Z" fill="#0A6642"/>
</svg>
