<svg width="65" height="58" viewBox="0 0 65 58" fill="none" xmlns="http://www.w3.org/2000/svg">
<path d="M59.1838 10.3673H7.71963C7.03717 10.3673 6.38267 10.0942 5.9001 9.60815C5.41753 9.12209 5.14642 8.46285 5.14642 7.77545C5.14642 7.08806 5.41753 6.42882 5.9001 5.94276C6.38267 5.4567 7.03717 5.18364 7.71963 5.18364H51.4642C52.1467 5.18364 52.8012 4.91057 53.2837 4.42451C53.7663 3.93845 54.0374 3.27921 54.0374 2.59182C54.0374 1.90443 53.7663 1.24519 53.2837 0.759126C52.8012 0.273066 52.1467 0 51.4642 0H7.71963C5.67226 0 3.70874 0.819198 2.26103 2.27738C0.813316 3.73556 0 5.71328 0 7.77545V49.2445C0 51.3067 0.813316 53.2844 2.26103 54.7426C3.70874 56.2008 5.67226 57.02 7.71963 57.02H59.1838C60.5488 57.02 61.8578 56.4739 62.8229 55.5017C63.788 54.5296 64.3303 53.2111 64.3303 51.8364V15.5509C64.3303 14.1761 63.788 12.8576 62.8229 11.8855C61.8578 10.9134 60.5488 10.3673 59.1838 10.3673ZM59.1838 51.8364H7.71963C7.03717 51.8364 6.38267 51.5633 5.9001 51.0772C5.41753 50.5912 5.14642 49.9319 5.14642 49.2445V15.1071C5.97266 15.4021 6.84301 15.5522 7.71963 15.5509H59.1838V51.8364ZM43.7446 32.3977C43.7446 31.6288 43.9709 30.8772 44.3951 30.2378C44.8192 29.5985 45.422 29.1002 46.1273 28.8059C46.8326 28.5117 47.6087 28.4347 48.3574 28.5847C49.1061 28.7347 49.7939 29.105 50.3337 29.6487C50.8735 30.1924 51.2411 30.8851 51.39 31.6393C51.539 32.3934 51.4625 33.1751 51.1704 33.8855C50.8783 34.5959 50.3835 35.2031 49.7488 35.6303C49.114 36.0574 48.3678 36.2855 47.6044 36.2855C46.5807 36.2855 45.5989 35.8759 44.8751 35.1468C44.1512 34.4177 43.7446 33.4288 43.7446 32.3977Z" fill="#008C5D"/>
</svg>
