<svg width="20" height="22" viewBox="0 0 20 22" fill="none" xmlns="http://www.w3.org/2000/svg">
<path d="M19.5374 10.8125C19.5374 11.6261 18.8778 12.2857 18.0642 12.2857H15.4215C13.1484 12.2857 11.3057 14.1284 11.3057 16.4016V19.753C11.3057 20.5108 10.6914 21.125 9.93374 21.125V21.125C9.17603 21.125 8.56179 20.5108 8.56179 19.753V16.4016C8.56179 14.1284 6.71905 12.2857 4.44593 12.2857H1.80329C0.989659 12.2857 0.330078 11.6261 0.330078 10.8125V10.8125C0.330078 9.99887 0.989658 9.33929 1.80329 9.33929H4.44593C6.71905 9.33929 8.56179 7.49656 8.56179 5.22343V1.87195C8.56179 1.11424 9.17603 0.5 9.93374 0.5V0.5C10.6914 0.5 11.3057 1.11424 11.3057 1.87195V5.22343C11.3057 7.49655 13.1484 9.33929 15.4215 9.33929H18.0642C18.8778 9.33929 19.5374 9.99887 19.5374 10.8125V10.8125Z" fill="black"/>
</svg>
