<svg width="25" height="27" viewBox="0 0 25 27" fill="none" xmlns="http://www.w3.org/2000/svg">
<path d="M23.3992 5.625H1.63086ZM21.2646 9.0625L20.6756 18.55C20.4489 22.1992 20.3362 24.0239 19.2286 25.1363C18.121 26.25 16.4167 26.25 13.0106 26.25H12.0195C8.61336 26.25 6.90903 26.25 5.80141 25.1363C4.69379 24.0239 4.57982 22.1992 4.35446 18.55L3.76543 9.0625" fill="white"/>
<path d="M23.3992 5.625H1.63086M21.2646 9.0625L20.6756 18.55C20.4489 22.1992 20.3362 24.0239 19.2286 25.1363C18.121 26.25 16.4167 26.25 13.0106 26.25H12.0195C8.61336 26.25 6.90903 26.25 5.80141 25.1363C4.69379 24.0239 4.57982 22.1992 4.35446 18.55L3.76543 9.0625" stroke="black" stroke-width="1.5" stroke-linecap="round"/>
<path d="M5.47266 5.625H5.61351C6.12884 5.61086 6.6282 5.43006 7.04628 5.10623C7.46436 4.7824 7.7817 4.33063 7.9568 3.81L8.00034 3.66838L8.12455 3.26825C8.23083 2.92587 8.28461 2.75537 8.35504 2.60962C8.49359 2.32416 8.69245 2.07749 8.93571 1.88934C9.17896 1.7012 9.45984 1.57681 9.75589 1.52613C9.90571 1.5 10.0734 1.5 10.4089 1.5H14.6217C14.9572 1.5 15.125 1.5 15.2748 1.52613C15.5708 1.57681 15.8517 1.7012 16.095 1.88934C16.3382 2.07749 16.5371 2.32416 16.6756 2.60962C16.7461 2.75537 16.7999 2.92587 16.9061 3.26825L17.0303 3.66838C17.1926 4.24763 17.5282 4.75326 17.9852 5.10699C18.4421 5.46071 18.995 5.64278 19.558 5.625" fill="white"/>
<path d="M5.47266 5.625H5.61351C6.12884 5.61086 6.6282 5.43006 7.04628 5.10623C7.46436 4.7824 7.7817 4.33063 7.9568 3.81L8.00034 3.66838L8.12455 3.26825C8.23083 2.92587 8.28461 2.75537 8.35504 2.60962C8.49359 2.32416 8.69245 2.07749 8.93571 1.88934C9.17896 1.7012 9.45984 1.57681 9.75589 1.52613C9.90571 1.5 10.0734 1.5 10.4089 1.5H14.6217C14.9572 1.5 15.125 1.5 15.2748 1.52613C15.5708 1.57681 15.8517 1.7012 16.095 1.88934C16.3382 2.07749 16.5371 2.32416 16.6756 2.60962C16.7461 2.75537 16.7999 2.92587 16.9061 3.26825L17.0303 3.66838C17.1926 4.24763 17.5282 4.75326 17.9852 5.10699C18.4421 5.46071 18.995 5.64278 19.558 5.625" stroke="black" stroke-width="1.5"/>
</svg>
