<svg width="55" height="52" viewBox="0 0 55 52" fill="none" xmlns="http://www.w3.org/2000/svg">
<path d="M51.6735 0H0V51.6735H51.6735V0Z" fill="white" fill-opacity="0.01"/>
<path d="M4.30859 15.0703L25.8392 25.8356" stroke="#008C5D" stroke-linecap="round" stroke-linejoin="round"/>
<path d="M25.8359 47.3665V25.8359" stroke="#008C5D" stroke-linecap="round" stroke-linejoin="round"/>
<path d="M47.3665 15.0703L25.8359 25.8356" stroke="#008C5D" stroke-linecap="round" stroke-linejoin="round"/>
<path d="M36.6009 9.6875L15.0703 20.4528" stroke="#008C5D" stroke-linecap="round" stroke-linejoin="round"/>
<path fill-rule="evenodd" clip-rule="evenodd" d="M26.5061 2.96305C26.0838 2.7519 25.5868 2.7519 25.1645 2.96305L3.63387 13.7284C3.12569 13.9824 2.80469 14.5018 2.80469 15.07V36.6006C2.80469 37.1688 3.12569 37.6882 3.63387 37.9422L25.1645 48.7075C25.5868 48.9187 26.0838 48.9187 26.5061 48.7075L39.832 42.0446C39.2775 41.2188 38.8555 40.2965 38.5966 39.3082L25.8353 45.6889L5.80469 35.6735V15.997L25.8353 5.98174L45.8659 15.997V28.0873C46.3471 28.0081 46.8411 27.9669 47.3447 27.9669C47.8631 27.9669 48.3713 28.0106 48.8659 28.0943V15.07C48.8659 14.5018 48.5449 13.9824 48.0367 13.7284L26.5061 2.96305Z" fill="#008C5D"/>
<path d="M45.8563 44.168V38.888H40.5123V35.4H45.8563V30.024H49.3123V35.4H54.6243V38.888H49.3123V44.168H45.8563Z" fill="#008C5D"/>
</svg>
