<svg width="35" height="58" viewBox="0 0 35 58" fill="none" xmlns="http://www.w3.org/2000/svg">
<g clip-path="url(#clip0_5796_538)">
<path d="M0.834806 34.8198C0.546231 33.8333 0.340106 33.097 0.200972 32.1011C0.0618374 31.1193 0 29.9299 0 28.056V19.7109V15.8027C0 14.7643 0.432862 13.825 1.13369 13.1406C1.72114 12.5648 2.49411 12.173 3.34953 12.0645V2.1901C3.34953 1.58594 3.61749 1.03841 4.05035 0.641927C4.48322 0.245443 5.08098 0 5.74058 0H29.1924C29.8572 0 30.4601 0.250163 30.8981 0.651367C31.3361 1.05257 31.6092 1.60482 31.6092 2.2137V12.0692C32.4441 12.1919 33.1964 12.5789 33.7684 13.1406C34.4692 13.825 34.9072 14.7738 34.9072 15.8122V28.0938C35.067 29.8638 35.0155 31.2892 34.8454 32.5117C34.6754 33.7625 34.3868 34.7868 34.0776 35.7544C32.5574 40.4933 32.6502 44.6706 32.7481 49.3387C32.7739 50.6178 32.8048 51.9347 32.8048 53.11C32.8048 53.1195 32.8048 53.1336 32.8048 53.1431C32.8511 54.6912 32.4904 55.909 31.6608 56.7586C30.8208 57.6177 29.5532 58.0472 27.8114 57.9953H6.83819C6.82273 57.9953 6.81243 57.9953 6.79697 57.9953C5.14281 58.0378 3.99882 57.5988 3.25162 56.7822C2.50442 55.9704 2.20554 54.8328 2.21069 53.4688V44.5951C2.21069 42.5607 2.14885 41.0692 1.94273 39.6248C1.74176 38.1805 1.3965 36.7456 0.834806 34.8198ZM6.87426 32.0586H11.9707V37.2082H6.87426V32.0586ZM14.9544 48.3003H20.0508V53.4499H14.9544V48.3003ZM6.87426 48.3003H11.9707V53.4499H6.87426V48.3003ZM23.0345 40.1771H28.1309V53.4263H23.0345V40.1771ZM14.9544 40.1771H20.0508V45.3267H14.9544V40.1771ZM6.87426 40.1771H11.9707V45.3267H6.87426V40.1771ZM23.0345 32.0586H28.1309V37.2082H23.0345V32.0586ZM14.9544 32.0586H20.0508V37.2082H14.9544V32.0586ZM6.02915 17.1291H28.9708C29.3573 17.1291 29.7129 17.2848 29.9602 17.5303C29.986 17.5539 30.0118 17.5822 30.0324 17.6105C30.2231 17.8324 30.3416 18.1156 30.3416 18.4176V27.6831C30.3416 28.023 30.1921 28.3345 29.9602 28.5705C29.7077 28.8159 29.3573 28.9717 28.9708 28.9717H6.02915C5.64267 28.9717 5.29226 28.8159 5.03975 28.5705C4.80271 28.3392 4.65327 28.023 4.65327 27.6831V18.4129C4.65327 18.0731 4.80271 17.7568 5.03975 17.5256C5.29741 17.2801 5.64267 17.1291 6.02915 17.1291ZM28.5277 18.7952H6.47747V27.3008H28.5277V18.7952ZM23.9981 7.40576C23.5601 7.40576 23.2045 7.08008 23.2045 6.67887C23.2045 6.27767 23.5601 5.95199 23.9981 5.95199H27.1363C27.5744 5.95199 27.9299 6.27767 27.9299 6.67887C27.9299 7.08008 27.5744 7.40576 27.1363 7.40576H23.9981ZM21.5246 4.41325C21.0866 4.41325 20.731 4.08757 20.731 3.68636C20.731 3.28516 21.0866 2.95947 21.5246 2.95947H27.1363C27.5744 2.95947 27.9299 3.28516 27.9299 3.68636C27.9299 4.08757 27.5744 4.41325 27.1363 4.41325H21.5246ZM7.12161 5.18262C7.12161 4.31413 7.88943 3.61084 8.8376 3.61084C9.27047 3.61084 9.66726 3.75716 9.96614 4.0026C10.2702 3.76188 10.6618 3.61084 11.0947 3.61084C12.0428 3.61084 12.8107 4.31413 12.8107 5.18262C12.8107 6.05111 12.0428 6.75439 11.0947 6.75439C10.6618 6.75439 10.265 6.60807 9.96614 6.36735C9.66726 6.60807 9.27562 6.75439 8.84276 6.75439C7.89458 6.75439 7.12161 6.05111 7.12161 5.18262ZM4.75633 9.0389H30.2024V2.2137C30.2024 1.95882 30.0891 1.73226 29.9036 1.56234C29.7232 1.39714 29.4707 1.28857 29.1924 1.28857H5.74058C5.47262 1.28857 5.22527 1.39242 5.04491 1.5529C4.8697 1.7181 4.75633 1.94466 4.75633 2.1901V9.0389ZM30.2024 10.1434H4.75633V11.8615H30.2024V10.1434ZM1.69538 31.9076C1.81905 32.7855 2.01487 33.484 2.28799 34.4186C2.87029 36.3963 3.22585 37.8879 3.44228 39.4266C3.65872 40.9653 3.72571 42.5088 3.72571 44.5951V53.4688H3.72055V53.4735C3.7154 54.4836 3.90607 55.2907 4.375 55.8052C4.82332 56.2961 5.59114 56.5604 6.75574 56.5321C6.78151 56.5273 6.81243 56.5273 6.83819 56.5273H27.8062V56.5321H27.832C29.1306 56.5698 30.0272 56.3008 30.5683 55.7485C31.1042 55.2057 31.3361 54.342 31.3001 53.195C31.2949 53.1667 31.2949 53.1383 31.2949 53.11C31.2949 51.694 31.2691 50.514 31.2434 49.367C31.1403 44.5715 31.0476 40.2762 32.6347 35.3154C32.9284 34.4045 33.1964 33.451 33.351 32.3229C33.5056 31.1948 33.552 29.8779 33.4025 28.2259C33.3922 28.1834 33.3922 28.141 33.3922 28.0938V15.8122C33.3922 15.175 33.1243 14.5944 32.6966 14.1743C32.2688 13.759 31.6814 13.4993 31.0321 13.4993H29.7902H15.1347H3.85969C3.21555 13.4993 2.62809 13.759 2.20038 14.1743C1.77267 14.5897 1.50986 15.1655 1.50986 15.8027V19.7109V28.056C1.50986 29.8826 1.56655 31.0107 1.69538 31.9076Z" fill="#008C5D"/>
</g>
<defs>
<clipPath id="clip0_5796_538">
<rect width="35" height="58" fill="white"/>
</clipPath>
</defs>
</svg>
