<svg width="73" height="58" viewBox="0 0 73 58" fill="none" xmlns="http://www.w3.org/2000/svg">
<path d="M27.2339 22.8438C27.2339 20.3395 21.8833 17.7827 15.0633 17.7827C8.24268 17.7827 2.89207 20.3394 2.89207 22.8438C2.89207 25.3482 8.24268 27.9049 15.0633 27.9049C21.8833 27.9049 27.2339 25.3481 27.2339 22.8438ZM30.1259 22.8438C30.1259 27.5275 23.284 30.797 15.0633 30.797C6.84197 30.797 0 27.5275 0 22.8438C0 18.1601 6.84205 14.8906 15.0633 14.8906C23.284 14.8906 30.1259 18.1602 30.1259 22.8438ZM27.2339 49.0653C27.2339 51.5695 21.8833 54.1264 15.0633 54.1264C8.24268 54.1264 2.89207 51.5696 2.89207 49.0653H0C0 53.749 6.84205 57.0184 15.0633 57.0184C23.284 57.0184 30.1259 53.7489 30.1259 49.0653H27.2339ZM27.2339 40.2444C27.2339 42.7487 21.8833 45.3056 15.0633 45.3056C8.24268 45.3056 2.89207 42.7488 2.89207 40.2444H0C0 44.9282 6.84205 48.1976 15.0633 48.1976C23.284 48.1976 30.1259 44.9281 30.1259 40.2444H27.2339ZM27.2339 31.5682C27.2339 34.0725 21.8833 36.6294 15.0633 36.6294C8.24268 36.6294 2.89207 34.0726 2.89207 31.5682H0C0 36.252 6.84205 39.5214 15.0633 39.5214C23.284 39.5214 30.1259 36.2519 30.1259 31.5682H27.2339Z" fill="#008C5D"/>
<path d="M0 22.8425V49.3049C0 50.1035 0.647397 50.7509 1.44603 50.7509C2.24467 50.7509 2.89207 50.1035 2.89207 49.3049V22.8425C2.89207 22.0438 2.24467 21.3964 1.44603 21.3964C0.647397 21.3964 0 22.0438 0 22.8425ZM27.2337 22.8425V49.0157C27.2337 49.8143 27.8811 50.4617 28.6797 50.4617C29.4783 50.4617 30.1257 49.8143 30.1257 49.0157V22.8425C30.1257 22.0438 29.4783 21.3964 28.6797 21.3964C27.8811 21.3964 27.2337 22.0438 27.2337 22.8425ZM67.221 54.125C68.4186 54.125 69.39 53.1536 69.39 51.956V5.06112C69.39 3.86348 68.4186 2.89207 67.221 2.89207H38.5801C37.3825 2.89207 36.411 3.86348 36.411 5.06112V51.956C36.411 53.1536 37.3825 54.125 38.5801 54.125H67.221ZM67.221 57.0171H38.5801C35.7853 57.0171 33.519 54.7508 33.519 51.956V5.06112C33.519 2.26628 35.7853 0 38.5801 0H67.221C70.0158 0 72.2821 2.26628 72.2821 5.06112V51.956C72.2821 54.7508 70.0158 57.0171 67.221 57.0171Z" fill="#008C5D"/>
<path d="M63.0116 12.7632H42.7866V17.0456H63.0116V12.7632ZM63.7346 19.9377H42.0636C40.8659 19.9377 39.8945 18.9664 39.8945 17.7686V12.0401C39.8945 10.8424 40.8659 9.87109 42.0636 9.87109H63.7346C64.9323 9.87109 65.9037 10.8424 65.9037 12.0401V17.7686C65.9037 18.9664 64.9323 19.9377 63.7346 19.9377ZM46.1237 27.5622C46.1237 28.8831 45.0529 29.9532 43.732 29.9532C42.4117 29.9532 41.3409 28.8832 41.3409 27.5622C41.3409 26.2412 42.4117 25.1712 43.732 25.1712C45.0529 25.1712 46.1237 26.2412 46.1237 27.5622ZM55.2907 27.5622C55.2907 28.8831 54.2199 29.9532 52.8997 29.9532C51.5787 29.9532 50.5079 28.8832 50.5079 27.5622C50.5079 26.2412 51.5787 25.1712 52.8997 25.1712C54.2199 25.1712 55.2907 26.2412 55.2907 27.5622ZM64.4576 27.363C64.4576 28.6839 63.3869 29.754 62.0659 29.754C60.7457 29.754 59.6748 28.6839 59.6748 27.363C59.6748 26.042 60.7456 24.9712 62.0659 24.9712C63.3868 24.9712 64.4576 26.042 64.4576 27.363ZM46.1237 36.1314C46.1237 37.4523 45.0529 38.5224 43.732 38.5224C42.4117 38.5224 41.3409 37.4524 41.3409 36.1314C41.3409 34.8104 42.4117 33.7396 43.732 33.7396C45.0529 33.7396 46.1237 34.8104 46.1237 36.1314ZM55.2907 36.1314C55.2907 37.4523 54.2199 38.5224 52.8997 38.5224C51.5787 38.5224 50.5079 37.4524 50.5079 36.1314C50.5079 34.8104 51.5787 33.7396 52.8997 33.7396C54.2199 33.7396 55.2907 34.8104 55.2907 36.1314ZM64.4576 36.1314C64.4576 37.4523 63.3869 38.5224 62.0659 38.5224C60.7457 38.5224 59.6748 37.4524 59.6748 36.1314C59.6748 34.8104 60.7456 33.7396 62.0659 33.7396C63.3868 33.7396 64.4576 34.8104 64.4576 36.1314ZM46.1237 44.8998C46.1237 46.2207 45.0529 47.2908 43.732 47.2908C42.4117 47.2908 41.3409 46.2208 41.3409 44.8998C41.3409 43.5788 42.4117 42.508 43.732 42.508C45.0529 42.508 46.1237 43.5788 46.1237 44.8998ZM55.2907 44.8998C55.2907 46.2207 54.2199 47.2908 52.8997 47.2908C51.5787 47.2908 50.5079 46.2208 50.5079 44.8998C50.5079 43.5788 51.5787 42.508 52.8997 42.508C54.2199 42.508 55.2907 43.5788 55.2907 44.8998ZM64.4576 44.8998C64.4576 46.2207 63.3869 47.2908 62.0659 47.2908C60.7457 47.2908 59.6748 46.2208 59.6748 44.8998C59.6748 43.5788 60.7456 42.508 62.0659 42.508C63.3868 42.508 64.4576 43.5788 64.4576 44.8998Z" fill="#008C5D"/>
</svg>
