<svg width="67" height="58" viewBox="0 0 67 58" fill="none" xmlns="http://www.w3.org/2000/svg">
<path d="M5.16264 0C2.32225 0 0 2.09358 0 4.65932V52.3607C0 54.9264 2.32202 57.02 5.16264 57.02H41.9829C44.8232 57.02 47.1409 54.9264 47.1409 52.3607V50.2487L46.0879 50.6437L45.0572 51.0307V52.3608C45.0572 53.9166 43.7051 55.1378 41.9828 55.1378H5.16262C3.44031 55.1378 2.08372 53.9166 2.08372 52.3608V4.6594C2.08372 3.10361 3.44015 1.88234 5.16262 1.88234H41.9828C43.7052 1.88234 45.0572 3.10361 45.0572 4.6594V39.174L47.1409 37.1749V4.65992C47.1409 2.09418 44.8232 0.000598288 41.9829 0.000598288L5.16264 0ZM47.1414 40.1897L45.2673 41.9873L47.1414 43.5794V40.1897ZM45.0576 45.8406V48.8029L45.2138 48.7465L46.4676 48.2709L47.1414 48.021V47.6139L45.0576 45.8406Z" fill="#008C5D"/>
<path fill-rule="evenodd" clip-rule="evenodd" d="M8.3927 8.69324C8.12383 8.71441 7.87455 8.82902 7.69736 9.01292C7.52017 9.19681 7.42891 9.43563 7.44279 9.67909C7.45667 9.92256 7.57461 10.1517 7.77177 10.3182C7.96893 10.4847 8.22992 10.5755 8.49978 10.5716H38.6445C38.7865 10.5796 38.9288 10.5613 39.0627 10.5177C39.1965 10.4741 39.3191 10.4063 39.4228 10.3183C39.5265 10.2303 39.6092 10.124 39.6656 10.0061C39.7221 9.88812 39.7513 9.76101 39.7513 9.63249C39.7513 9.50397 39.7221 9.37674 39.6656 9.25878C39.6092 9.14082 39.5265 9.03453 39.4228 8.94654C39.3191 8.85854 39.1965 8.79072 39.0627 8.74715C38.9288 8.70358 38.7865 8.68521 38.6445 8.69324H8.49978C8.46411 8.69158 8.42837 8.69158 8.3927 8.69324Z" fill="#008C5D"/>
<path fill-rule="evenodd" clip-rule="evenodd" d="M8.4989 14.8867C8.22258 14.8867 7.95758 14.9859 7.76219 15.1624C7.5668 15.3389 7.45703 15.5783 7.45703 15.8279C7.45703 16.0775 7.5668 16.3169 7.76219 16.4934C7.95758 16.6699 8.22258 16.769 8.4989 16.769H38.6436C38.92 16.769 39.185 16.6699 39.3803 16.4934C39.5757 16.3169 39.6855 16.0775 39.6855 15.8279C39.6855 15.5783 39.5757 15.3389 39.3803 15.1624C39.185 14.9859 38.92 14.8867 38.6436 14.8867H8.4989Z" fill="#008C5D"/>
<path fill-rule="evenodd" clip-rule="evenodd" d="M8.4989 21.2812C8.22258 21.2812 7.95758 21.3803 7.76219 21.5568C7.5668 21.7333 7.45703 21.9728 7.45703 22.2224C7.45703 22.472 7.5668 22.7112 7.76219 22.8877C7.95758 23.0642 8.22258 23.1635 8.4989 23.1635H38.6436C38.92 23.1635 39.185 23.0642 39.3803 22.8877C39.5757 22.7112 39.6855 22.472 39.6855 22.2224C39.6855 21.9728 39.5757 21.7333 39.3803 21.5568C39.185 21.3803 38.92 21.2812 38.6436 21.2812H8.4989Z" fill="#008C5D"/>
<path fill-rule="evenodd" clip-rule="evenodd" d="M8.4989 27.4766C8.22258 27.4766 7.95758 27.5757 7.76219 27.7522C7.5668 27.9286 7.45703 28.1681 7.45703 28.4177C7.45703 28.6673 7.5668 28.9065 7.76219 29.083C7.95758 29.2595 8.22258 29.3588 8.4989 29.3588H38.6436C38.92 29.3588 39.185 29.2595 39.3803 29.083C39.5757 28.9065 39.6855 28.6673 39.6855 28.4177C39.6855 28.1681 39.5757 27.9286 39.3803 27.7522C39.185 27.5757 38.92 27.4766 38.6436 27.4766H8.4989Z" fill="#008C5D"/>
<path fill-rule="evenodd" clip-rule="evenodd" d="M8.4989 33.668C8.22258 33.668 7.95758 33.7671 7.76219 33.9436C7.5668 34.1201 7.45703 34.3595 7.45703 34.6091C7.45703 34.8587 7.5668 35.0979 7.76219 35.2744C7.95758 35.4509 8.22258 35.5502 8.4989 35.5502H38.6436C38.92 35.5502 39.185 35.4509 39.3803 35.2744C39.5757 35.0979 39.6855 34.8587 39.6855 34.6091C39.6855 34.3595 39.5757 34.1201 39.3803 33.9436C39.185 33.7671 38.92 33.668 38.6436 33.668H8.4989Z" fill="#008C5D"/>
<path fill-rule="evenodd" clip-rule="evenodd" d="M8.4989 40.0664C8.22258 40.0664 7.95758 40.1655 7.76219 40.342C7.5668 40.5185 7.45703 40.7579 7.45703 41.0075C7.45703 41.2571 7.5668 41.4966 7.76219 41.6731C7.95758 41.8496 8.22258 41.9487 8.4989 41.9487H38.6436C38.92 41.9487 39.185 41.8496 39.3803 41.6731C39.5757 41.4966 39.6855 41.2571 39.6855 41.0075C39.6855 40.7579 39.5757 40.5185 39.3803 40.342C39.185 40.1655 38.92 40.0664 38.6436 40.0664H8.4989Z" fill="#008C5D"/>
<path fill-rule="evenodd" clip-rule="evenodd" d="M8.4989 46.2539C8.22258 46.2539 7.95758 46.353 7.76219 46.5295C7.5668 46.706 7.45703 46.9454 7.45703 47.195C7.45703 47.4446 7.5668 47.6841 7.76219 47.8606C7.95758 48.0371 8.22258 48.1362 8.4989 48.1362H38.6436C38.92 48.1362 39.185 48.0371 39.3803 47.8606C39.5757 47.6841 39.6855 47.4446 39.6855 47.195C39.6855 46.9454 39.5757 46.706 39.3803 46.5295C39.185 46.353 38.92 46.2539 38.6436 46.2539H8.4989Z" fill="#008C5D"/>
<path d="M59.2007 27.7137C58.9769 27.6789 58.7369 27.7449 58.5631 27.9094L57.9222 28.5159L64.1132 34.0716L64.7542 33.4652C65.0322 33.202 65.0317 32.7885 64.753 32.5384L59.5678 27.8857C59.4633 27.7919 59.3349 27.7346 59.2007 27.7137ZM57.2549 29.1477L43.7684 41.9152L49.9596 47.4706L63.4459 34.7035L57.2549 29.1477ZM43.1011 42.5469L42.4657 43.1483C42.1877 43.4115 42.1883 43.8246 42.467 44.0747L47.6522 48.7274C47.9309 48.9774 48.379 48.9668 48.657 48.7037L49.2924 48.1023L43.1011 42.5469Z" fill="#008C5D"/>
<path d="M39.7415 51.5778C39.5447 51.4015 39.8054 50.8042 39.8054 50.8042L40.2795 49.6432L40.7537 48.4821L41.2278 47.3211L41.702 46.16L42.1761 44.999L42.6503 43.8379L43.1244 42.6769L43.8997 43.3712L44.6749 44.0656L45.4502 44.7599L46.2255 45.4542L47.0007 46.1486L47.776 46.8429L48.5512 47.5373L49.3265 48.2316L48.0771 48.6983L46.8277 49.165L45.5783 49.6318L44.3289 50.0985L43.0795 50.5652L41.8301 51.0319L40.5807 51.4986C40.5807 51.4986 39.9383 51.7541 39.7415 51.5778Z" fill="#008C5D"/>
<path d="M58.9867 27.7307C58.7566 27.6976 58.5167 27.7671 58.3442 27.9322L57.7061 28.5408L64.2208 34.0788L64.8589 33.4702C65.1349 33.2053 65.1209 32.7925 64.8276 32.5432L59.3705 27.9041C59.2605 27.8112 59.1248 27.7513 58.9867 27.7307ZM57.0413 29.1776L43.6508 42.0311L50.1698 47.5691L63.5603 34.7157L57.0413 29.1776ZM42.9904 42.664V42.6682L42.9145 42.7407L42.3612 43.2727C42.0958 43.5276 42.1043 43.9161 42.3658 44.1675L42.0222 45.0704L41.576 46.2352L41.1298 47.4041L40.6836 48.5689L40.233 49.7337L39.7868 50.9026C39.7868 50.9026 39.5398 51.5011 39.7466 51.6765C39.9534 51.8529 40.6033 51.5918 40.6033 51.5918L41.8661 51.1202L43.1244 50.6446L44.3871 50.173L45.6499 49.7015L46.9082 49.2259L47.8853 48.8591C48.1791 49.0809 48.6099 49.0666 48.8759 48.8107L49.4247 48.2827L49.4336 48.2786L49.505 48.206L42.9904 42.664Z" fill="#008C5D"/>
</svg>
