<svg width="41" height="50" viewBox="0 0 41 50" fill="none" xmlns="http://www.w3.org/2000/svg">
<path d="M38.4648 2.18405C38.4436 2.16285 38.4224 2.12044 38.38 2.09924C37.0865 0.805768 35.3053 0 33.3333 0H7.16709C5.19508 0 3.41391 0.805768 2.09924 2.09924C0.805768 3.39271 0 5.19508 0 7.14589V42.8541C0 44.8049 0.805768 46.6073 2.09924 47.9008C3.39271 49.1942 5.19508 50 7.14589 50H26.8236C27.2265 50 27.5869 49.8304 27.8202 49.5547L39.9915 37.9771C40.2884 37.7226 40.4792 37.341 40.4792 36.9169V7.16709C40.4792 5.23749 39.7159 3.47752 38.4648 2.18405ZM37.7651 36.3868L26.2723 47.307H25.827V38.0619C25.827 37.2349 26.1238 36.514 26.6327 36.0051C27.1416 35.4962 27.8626 35.1993 28.6896 35.1993H37.7439L37.7651 36.3868ZM37.7651 32.4852H28.7108C27.1416 32.4852 25.7422 33.1001 24.7243 34.0967C23.7277 35.0933 23.1128 36.4928 23.1128 38.0831V47.3282H7.16709C5.93724 47.3282 4.83461 46.8193 4.02884 46.0348C3.22307 45.229 2.73537 44.1264 2.73537 42.8965V7.16709C2.73537 5.93723 3.22307 4.83461 4.02884 4.02884C4.83461 3.22307 5.93724 2.73537 7.16709 2.73537H33.3333C34.542 2.73537 35.6658 3.24427 36.4716 4.02884C36.4928 4.05004 36.514 4.07125 36.5352 4.09245C37.2986 4.89822 37.7863 5.97964 37.7863 7.16709L37.7651 32.4852Z" fill="#008C5D"/>
<path d="M9.65005 33.9915C8.88669 33.9915 8.29297 33.3766 8.29297 32.6344C8.29297 31.8923 8.9079 31.2773 9.65005 31.2773H20.3795C21.1216 31.2773 21.7366 31.8923 21.7366 32.6344C21.7366 33.3766 21.1216 33.9915 20.3795 33.9915H9.65005Z" fill="#008C5D"/>
<path d="M9.65005 27.3118C8.88669 27.3118 8.29297 26.6969 8.29297 25.9547C8.29297 25.2126 8.9079 24.5977 9.65005 24.5977H20.3795C21.1216 24.5977 21.7366 25.2126 21.7366 25.9547C21.7366 26.7181 21.1216 27.3118 20.3795 27.3118H9.65005Z" fill="#008C5D"/>
<path d="M9.65005 20.6321C8.88669 20.6321 8.29297 20.0172 8.29297 19.2751C8.29297 18.5329 8.9079 17.918 9.65005 17.918H34.0139C34.7773 17.918 35.371 18.5329 35.371 19.2751C35.371 20.0384 34.7561 20.6321 34.0139 20.6321H9.65005Z" fill="#008C5D"/>
<path d="M9.65005 13.9329C8.88669 13.9329 8.29297 13.318 8.29297 12.5758C8.29297 11.8337 8.9079 11.2188 9.65005 11.2188H34.0139C34.7773 11.2188 35.371 11.8337 35.371 12.5758C35.371 13.318 34.7561 13.9329 34.0139 13.9329H9.65005Z" fill="#008C5D"/>
</svg>
