<svg width="71" height="58" viewBox="0 0 71 58" fill="none" xmlns="http://www.w3.org/2000/svg">
<path d="M71 10.3673V46.6527C71 48.0836 70.7689 49.42 70.3066 50.6619C69.8444 51.9039 69.2088 52.9973 68.3999 53.9422C67.591 54.8871 66.6434 55.6296 65.5571 56.1696C64.4709 56.7095 63.3268 56.993 62.125 57.02H8.63232C7.45361 57.02 6.34424 56.75 5.3042 56.2101C4.26416 55.6701 3.35124 54.9546 2.56543 54.0637C1.77962 53.1728 1.1556 52.1063 0.693359 50.8644C0.23112 49.6225 0 48.3131 0 46.9362V0H62.125V10.3673H71ZM66.5625 15.5509H62.125V44.0609C62.125 44.7629 61.9054 45.3703 61.4663 45.8833C61.0272 46.3962 60.5072 46.6527 59.9062 46.6527C59.3053 46.6527 58.7853 46.3962 58.3462 45.8833C57.9071 45.3703 57.6875 44.7629 57.6875 44.0609V5.18364H4.4375V46.9362C4.4375 47.6112 4.5415 48.2456 4.74951 48.8396C4.95752 49.4335 5.25798 49.9465 5.65088 50.3785C6.04378 50.8104 6.49447 51.1614 7.00293 51.4314C7.51139 51.7014 8.05452 51.8364 8.63232 51.8364H62.125C62.749 51.8364 63.3268 51.7014 63.8584 51.4314C64.39 51.1614 64.8522 50.7969 65.2451 50.338C65.638 49.879 65.9616 49.3255 66.2158 48.6776C66.4701 48.0296 66.5856 47.3547 66.5625 46.6527V15.5509ZM53.25 15.5509H8.875V10.3673H53.25V15.5509ZM53.25 46.6527H35.5V41.4691H53.25V46.6527ZM53.25 36.2855H35.5V31.1018H53.25V36.2855ZM53.25 25.9182H35.5V20.7345H53.25V25.9182ZM31.0625 46.6527H8.875V20.6131H31.0625V46.6527ZM13.3125 41.4691H26.625V25.7967H13.3125V41.4691Z" fill="#008C5D"/>
</svg>
