<svg width="64" height="63" viewBox="0 0 64 63" fill="none" xmlns="http://www.w3.org/2000/svg">
<path d="M63.6792 54.9563L57.5209 48.2666V27.008C57.5209 14.7521 47.5012 4.63704 34.6877 3.38277V2.501C34.6877 1.12104 33.4849 0 32.0014 0C30.5179 0 29.3151 1.12104 29.3151 2.501V3.38269C16.5017 4.63704 6.48191 14.752 6.48191 27.008V48.2665L0.323648 54.9562C-0.0185064 55.3262 -0.0960813 55.8489 0.123039 56.2921C0.342072 56.7354 0.818195 57.02 1.34288 57.02H62.66C63.1847 57.02 63.6608 56.7354 63.8799 56.2921C64.0989 55.8489 64.0202 55.3263 63.6792 54.9563ZM6.48191 53.2686L10.5113 48.2666V27.008C10.5113 15.9757 20.1519 7.00001 32.0014 7.00001C43.8509 7.00001 53.4915 15.9757 53.4915 27.008V48.2666L57.5209 53.2686H6.48191Z" fill="#008C5D"/>
<path d="M38.4814 57C38.4816 57.0088 38.4841 57.0175 38.4841 57.0263C38.4841 58.8201 35.5 60.3936 32.0983 60.3936C28.6966 60.3936 25.7125 58.8201 25.7125 57.0263C25.7125 57.0175 25.7151 57.0088 25.7152 57H23.002C23.002 57.009 23 57.0174 23 57.0263C23 60.3308 26.9965 62.9191 32.0984 62.9191C37.2003 62.9191 41.1968 60.3308 41.1968 57.0263C41.1968 57.0174 41.1949 57.0089 41.1948 57H38.4814Z" fill="#008C5D"/>
</svg>
