<svg width="53" height="44" viewBox="0 0 53 44" fill="none" xmlns="http://www.w3.org/2000/svg">
<path d="M52.7646 24.6642V24.4444V24.3895C52.7646 24.3346 52.6986 24.2247 52.6325 24.1698V24.1149C52.5665 24.0599 52.5665 24.005 52.5005 23.9501L52.4344 23.8951C52.3684 23.8402 52.3023 23.7853 52.2363 23.7853L52.1703 23.7303H52.1042L40.2173 18.5668V6.59176V6.53683V6.3171V6.26217C40.2173 6.20724 40.1513 6.09738 40.0853 6.04245V5.98752C40.0192 5.93258 40.0192 5.87765 39.9532 5.82272L39.8871 5.76779C39.8211 5.71286 39.7551 5.65793 39.689 5.65793L39.623 5.603H39.5569L27.0097 0.109863C27.0097 0.109863 26.9436 0.109863 26.9436 0.0549313C26.8776 0.0549313 26.8776 0 26.8116 0H26.0191C25.9531 0 25.887 0.0549313 25.887 0.0549313C25.887 0.0549313 25.821 0.0549313 25.821 0.109863L13.2737 5.603H13.2077L13.1416 5.65793C13.0756 5.71286 13.0095 5.71286 12.9435 5.76779L12.8775 5.82272C12.8114 5.87765 12.7454 5.93258 12.7454 5.98752V6.04245C12.6794 6.09738 12.6794 6.20724 12.6133 6.26217V18.5668L0.660383 23.7303H0.594345L0.528306 23.7853C0.462268 23.8402 0.39623 23.8402 0.330192 23.8951L0.264153 23.9501C0.198115 24.005 0.132077 24.0599 0.132077 24.1149V24.1698C0.0660383 24.2247 0.0660383 24.3346 0 24.3895V37.3533C0 37.7378 0.264153 38.1223 0.726421 38.3421L13.2737 43.8352C13.3397 43.8352 13.4058 43.8901 13.4718 43.8901C13.5379 43.8901 13.5379 43.8901 13.6039 43.9451C13.736 43.9451 13.802 44 13.9341 44C14.0662 44 14.1322 44 14.2643 43.9451C14.3303 43.9451 14.3303 43.9451 14.3964 43.8901C14.4624 43.8901 14.5284 43.8352 14.5945 43.8352L26.3493 38.6167L38.3022 43.8352C38.3683 43.8352 38.4343 43.8901 38.5003 43.8901C38.5664 43.8901 38.5664 43.8901 38.6324 43.9451C38.7645 43.9451 38.8305 44 38.9626 44C39.0947 44 39.1607 44 39.2928 43.9451C39.3588 43.9451 39.3588 43.9451 39.4249 43.8901C39.4909 43.8901 39.5569 43.8352 39.623 43.8352L52.1703 38.3421C52.6325 38.1773 52.8967 37.7928 52.8967 37.3533L52.7646 24.6642ZM38.8966 28.9488L29.1889 24.7191L38.8966 20.4894L48.6042 24.7191L38.8966 28.9488ZM13.802 28.9488L4.09438 24.7191L13.802 20.4894L23.5096 24.7191L13.802 28.9488ZM26.3493 2.36205L36.0569 6.59176L26.3493 10.8215L16.6417 6.59176L26.3493 2.36205ZM25.0285 22.9064L15.1228 18.5668V8.40449L25.0285 12.7441V22.9064ZM27.6701 22.9064V12.7441L37.5758 8.40449V18.5668L27.6701 22.9064ZM2.57549 26.5318L12.4812 30.8714V41.0337L2.57549 36.6941V26.5318ZM15.1228 30.8714L25.0285 26.5318V36.6941L15.1228 41.0337V30.8714ZM27.6701 26.5318L37.5758 30.8714V41.0337L27.6701 36.6941V26.5318ZM50.1231 36.6941L40.2173 41.0337V30.8714L50.1231 26.5318V36.6941Z" fill="#008C5D"/>
</svg>
