<svg width="52" height="50" viewBox="0 0 52 50" fill="none" xmlns="http://www.w3.org/2000/svg">
<g clip-path="url(#clip0_5796_496)">
<path d="M21.2478 5.12742C26.6397 5.12742 35.0931 5.1681 40.4851 5.1681C41.0791 5.1681 41.6731 5.20878 42.2671 5.33083C42.8155 5.4122 43.3638 5.57493 43.9121 5.77835C44.4148 5.98177 44.9174 6.22587 45.42 6.51065C45.877 6.79544 46.3339 7.12091 46.7452 7.48706C47.1564 7.85321 47.522 8.26004 47.8418 8.66688C48.1617 9.07371 48.4358 9.52123 48.6643 10.0094C48.8928 10.457 49.0299 10.9452 49.167 11.474C49.2583 12.0029 49.3497 12.4911 49.3497 13.0607V28.9679C49.3497 29.4968 49.304 30.0257 49.167 30.5546C49.0756 31.0835 48.8928 31.531 48.6643 32.0192C48.4358 32.4667 48.1617 32.9142 47.8418 33.3618C47.522 33.7686 47.1564 34.1754 46.7452 34.5416C46.2882 34.9077 45.8313 35.2739 45.3743 35.518C44.9174 35.8028 44.4148 36.0469 43.9121 36.2503C43.4095 36.4537 42.8612 36.5757 42.3128 36.6978C41.7645 36.7792 41.1705 36.8605 40.5308 36.8605H33.7223C33.4938 36.8605 33.3111 36.9012 33.1283 36.9826C32.9455 37.0639 32.8084 37.186 32.6714 37.308C32.123 37.9183 31.5747 38.5286 30.9807 39.1388C30.3866 39.7084 29.7926 40.2779 29.1072 40.8068C28.4675 41.3357 27.7821 41.8239 27.0967 42.3121C26.4112 42.8003 25.6801 43.2478 24.949 43.6954C24.2636 44.1022 23.4868 44.509 22.71 44.8752C21.9332 45.2413 21.1564 45.5668 20.3796 45.8923C20.2882 45.9329 20.1968 45.9329 20.1054 45.8923C19.9684 45.8109 19.9227 45.6482 19.9684 45.5261C20.1054 45.282 20.2425 45.0786 20.3796 44.8345C20.5167 44.6311 20.6538 44.387 20.7452 44.1429C20.9736 43.6954 21.2021 43.2478 21.3849 42.7596C21.6134 42.2714 21.7961 41.7832 21.9789 41.295C22.1617 40.8475 22.3445 40.3593 22.4815 39.8711C22.6643 39.3829 22.8014 38.8947 22.9385 38.4065C22.9842 38.2438 23.0299 38.1217 23.0299 37.959C23.0299 37.6335 22.8928 37.3487 22.6186 37.1046C22.3902 36.9012 22.0246 36.7385 21.659 36.7385H13.891C13.297 36.7385 12.703 36.6978 12.109 36.5757C11.5606 36.4944 11.0123 36.3316 10.5097 36.1689C10.007 36.0062 9.50439 35.7621 9.04745 35.4773C8.54481 35.1925 8.08787 34.8264 7.63093 34.4602C7.21968 34.0941 6.85413 33.6872 6.53427 33.2804C6.21441 32.8735 5.94025 32.426 5.71177 31.9378C5.4833 31.4903 5.34622 31.0021 5.20914 30.4732C5.11775 29.9443 5.02636 29.4561 5.02636 28.8866V18.8377C5.02636 17.2104 2.65026 17.2104 2.28471 18.3495V28.8866C2.28471 29.5782 2.3761 30.2698 2.51318 30.9207C2.65026 31.5717 2.87873 32.2226 3.1529 32.8329C3.42706 33.4431 3.79262 34.0127 4.20387 34.5823C4.61511 35.1518 5.11775 35.6807 5.66608 36.1689C6.21441 36.6571 6.80843 37.1046 7.44815 37.4708C8.04218 37.8369 8.72759 38.1624 9.413 38.4065C10.0984 38.6506 10.8295 38.854 11.5606 38.9761C12.2917 39.0981 13.0685 39.1795 13.8453 39.1795H19.4657C19.5114 39.1795 19.5571 39.1795 19.5571 39.1795C19.7399 39.2202 19.8313 39.3829 19.7399 39.5456C19.6485 39.8711 19.5114 40.1559 19.42 40.4814C19.2373 40.9289 19.0545 41.3764 18.8717 41.8239C18.6889 42.2308 18.4605 42.6783 18.2777 43.0851C18.2777 43.1258 18.2777 43.1258 18.2777 43.1665C18.0949 43.5733 17.8664 43.9801 17.5923 44.387C17.3181 44.7938 17.0439 45.16 16.6784 45.5668C16.3585 45.9329 15.9473 46.3398 15.536 46.7466C15.1248 47.1535 14.6678 47.5196 14.1652 47.9264C13.891 48.1705 13.754 48.4553 13.7083 48.7808C13.7083 49.1063 13.7996 49.391 14.0738 49.6351C14.2566 49.7979 14.4851 49.9199 14.7135 50.0013C14.942 50.0827 15.2162 50.0827 15.4446 50.0013C16.4499 49.7572 17.4552 49.4724 18.4605 49.1876C19.42 48.9028 20.3796 48.5774 21.2935 48.2112C22.2074 47.8451 23.1213 47.4789 23.9895 47.0721C24.8576 46.6652 25.6801 46.2177 26.5026 45.7295C27.3251 45.282 28.1019 44.7531 28.833 44.2242C29.6098 43.6954 30.2953 43.1258 31.0264 42.5562C31.6204 42.068 32.1687 41.5391 32.717 41.0102C33.2654 40.4814 33.8137 39.9118 34.3163 39.3422C34.362 39.2609 34.4534 39.2202 34.5905 39.2202H40.5308C41.3076 39.2202 42.0844 39.1388 42.8155 39.0168C43.5466 38.8947 44.2777 38.6913 44.9631 38.4472C45.6485 38.2031 46.2882 37.8776 46.9279 37.5115C47.5677 37.1453 48.1617 36.6978 48.71 36.2096C49.2583 35.7214 49.761 35.1925 50.1722 34.6229C50.5835 34.0534 50.949 33.4838 51.2232 32.8735C51.4974 32.2633 51.7258 31.6124 51.8629 30.9614C52 30.3105 52.0914 29.6189 52.0914 28.9273V12.9793C52.0914 12.2877 52 11.5961 51.8629 10.9452C51.7258 10.2942 51.4974 9.64328 51.2232 9.03303C50.949 8.42278 50.5835 7.85321 50.1722 7.28364C49.761 6.71407 49.2583 6.18519 48.71 5.69698C48.1617 5.20878 47.5677 4.76126 46.9279 4.39511C46.3339 4.02896 45.6485 3.70349 44.9631 3.45939C44.2777 3.21529 43.5466 3.01187 42.8155 2.88982C42.0844 2.76777 41.3076 2.68641 40.5308 2.68641C34.9104 2.68641 26.2742 2.64572 20.6538 2.64572C19.283 3.01187 19.1916 5.12742 21.2478 5.12742ZM11.1037 15.9492C11.9719 16.1933 12.8401 16.4374 13.7083 16.6815C14.5764 16.9256 15.4446 17.2104 16.3128 17.4545C18.3691 18.0241 19.5114 18.3902 19.7399 18.4309C19.9684 18.4716 19.8313 17.6579 19.3286 15.8679L17.6837 10.2942L17.5466 10.1722L11.1037 15.9492ZM15.1705 8.01594L6.80844 0.204714C6.53427 0.00129679 6.2601 -0.0800702 5.94025 0.0826637L0.182777 5.04605C-0.0456942 5.29015 -0.0913884 5.57493 0.228471 5.85972L8.72759 13.793L15.1705 8.01594ZM19.2373 29.6596C18.5061 29.6596 17.9578 29.1714 17.9121 28.5204C17.9121 27.8695 18.4605 27.3813 19.1916 27.3406L30.6151 27.1779L33.2197 27.0151C33.9508 26.9744 34.5448 27.4626 34.5905 28.0729C34.6362 28.7238 34.0879 29.2527 33.4025 29.2934L30.7979 29.4561C30.7979 29.4561 20.3796 29.6189 19.2373 29.6596ZM23.304 22.4179C22.5729 22.4179 22.0246 21.889 22.0246 21.2788C22.0246 20.6278 22.6186 20.1396 23.304 20.1396H39.5712C40.3023 20.1396 40.8506 20.6685 40.8506 21.2788C40.8506 21.9297 40.2566 22.4179 39.5712 22.4179H23.304ZM29.0615 15.5424C28.3304 15.5424 27.7821 15.0135 27.7821 14.4033C27.7821 13.793 28.3761 13.2641 29.0615 13.2641H39.5712C40.3023 13.2641 40.8506 13.793 40.8506 14.4033C40.8506 15.0542 40.2566 15.5424 39.5712 15.5424H29.0615Z" fill="#008C5D"/>
</g>
<defs>
<clipPath id="clip0_5796_496">
<rect width="52" height="50" fill="white"/>
</clipPath>
</defs>
</svg>
