<svg width="52" height="52" viewBox="0 0 52 52" fill="none" xmlns="http://www.w3.org/2000/svg">
<path d="M24.7624 0.99667C22.2706 1.4123 20.2053 2.4623 18.3869 4.27792C16.2094 6.44355 15.1094 9.04667 15.1094 12.0654C15.1094 15.3685 16.3441 18.1248 19.3522 21.6029C20.4971 22.9154 24.3359 27.0935 25.7277 28.5373L26.6257 29.456L28.3093 27.531C31.093 24.3373 34.1011 20.8154 34.8644 19.8092C36.4134 17.7967 37.5807 15.5435 37.9174 13.8154C38.0072 13.3779 38.097 12.5248 38.097 11.9123C38.097 8.89355 36.8848 6.15917 34.6175 4.01542C32.8889 2.3748 30.9134 1.36855 28.6685 0.99667C27.7256 0.887295 25.6155 0.86542 24.7624 0.99667ZM27.793 6.90292C29.8807 7.34042 31.6318 9.0248 32.1256 11.0592C32.5746 12.9404 32.0134 14.7779 30.5767 16.1998C28.8481 17.8842 26.3563 18.2998 24.1787 17.2717C20.6318 15.6092 19.8461 11.1248 22.6073 8.4123C24.0216 7.03417 25.8624 6.4873 27.793 6.90292Z" fill="#008C5D"/>
<path d="M37.1965 19.3063C36.9271 19.7219 36.7026 20.0719 36.7026 20.1156C36.7026 20.1594 39.7556 21.6906 43.4597 23.5281C47.1862 25.3656 50.2168 26.9188 50.1944 26.9406C50.1944 27.0063 45.2781 30.7469 41.0801 33.8969L40.474 34.3563L35.9393 30.4406L31.4047 26.525L31.1128 26.8094C30.9332 26.9625 30.7985 27.1594 30.7985 27.2031C30.7985 27.2688 32.7516 29.0188 35.1536 31.0969C37.9148 33.4813 39.4414 34.8813 39.374 34.925C39.0597 35.1 26.1516 40.0656 26.1292 40.0219C26.1067 40 22.5373 35.6469 18.1823 30.375C13.8272 25.0813 10.2803 20.7281 10.3027 20.7063C10.3252 20.6844 11.717 20.6406 13.3558 20.5969L16.3639 20.5313L15.7802 19.6125L15.1966 18.6719H12.7047C11.3354 18.6719 9.78638 18.7156 9.24761 18.7375L8.2823 18.8031L4.2864 21.4719C0.133358 24.2281 -0.00133521 24.3594 0.155807 24.95C0.268051 25.3875 18.0925 50.8281 18.3843 50.9813C18.7884 51.2 19.2374 51.0469 19.6863 50.5219C19.9108 50.2813 21.6618 48.1813 23.5924 45.9063L27.0945 41.7281L34.121 38.9938L41.1475 36.2594L46.5801 32.1469C49.5658 29.8938 52.2372 27.8813 52.5066 27.6625C53.0678 27.2031 53.225 26.8313 53.0229 26.3938C52.8882 26.0656 52.5066 25.8687 43.123 21.2312L37.6679 18.5625L37.1965 19.3063ZM16.768 30.2656C21.0782 35.4938 24.7822 39.9781 25.0067 40.2406L25.4108 40.7438L22.1782 44.5938C20.4047 46.7156 18.9231 48.4656 18.8782 48.4875C18.8333 48.5094 3.45579 26.5906 2.62518 25.3L2.44559 25.0375L5.63333 22.9156C7.38435 21.7563 8.86597 20.7937 8.88842 20.7937C8.93332 20.7719 12.4802 25.0375 16.768 30.2656Z" fill="#008C5D"/>
</svg>
