<svg width="53" height="45" viewBox="0 0 53 45" fill="none" xmlns="http://www.w3.org/2000/svg">
<path d="M52.9 13.9177L44.5871 0H8.31286L0 13.9177C0 17.1925 2.41829 19.6486 5.29 19.6486C8.16171 19.6486 10.58 17.1925 10.58 13.9177C10.58 17.0288 12.9983 19.6486 15.87 19.6486C18.7417 19.6486 21.16 17.1925 21.16 13.9177C21.16 17.0288 23.5783 19.6486 26.45 19.6486C29.3217 19.6486 31.74 17.1925 31.74 13.9177C31.74 17.0288 34.1583 19.6486 37.03 19.6486C39.9017 19.6486 42.32 17.1925 42.32 13.9177C42.32 17.0288 44.7383 19.6486 47.61 19.6486C50.4817 19.6486 52.9 17.1925 52.9 13.9177ZM47.61 26.1981C45.9474 26.1981 44.436 25.8706 43.0757 25.2157V37.6598H9.82429V25.2157C8.464 25.8706 6.95257 26.1981 5.29 26.1981C4.83657 26.1981 4.232 26.1981 3.77857 26.0344V44.2093H49.1214V26.0344C48.668 26.1981 48.0634 26.1981 47.61 26.1981Z" fill="#008C5D"/>
</svg>
