<svg width="66" height="58" viewBox="0 0 66 58" fill="none" xmlns="http://www.w3.org/2000/svg">
<path d="M32.1775 0.0509415C26.2918 0.636772 21.8008 2.06314 17.3657 4.76305C15.0504 6.16395 15.1062 6.08754 15.8594 6.92808L16.473 7.61579L17.0309 7.23373C21.0198 4.48287 25.5108 2.77633 30.6154 2.06314C32.6517 1.78296 36.7521 1.78296 38.7605 2.06314C48.384 3.4131 56.4733 8.73651 60.7411 16.5306C62.9169 20.4786 63.8374 24.07 63.8095 28.5528C63.8095 32.8574 62.9448 36.3469 60.9085 40.1166C59.2906 43.0967 57.8122 44.9816 55.2181 47.3504C52.8192 49.5154 50.755 50.8908 47.7145 52.2917C43.2236 54.3803 37.589 55.3991 32.7075 55.0426C31.6196 54.9661 30.5038 54.8643 30.197 54.8133L29.6391 54.7624L29.5554 55.2718C29.5275 55.552 29.4438 55.985 29.3881 56.1887L29.3044 56.5708L30.6712 56.7236C32.6517 56.9783 37.1148 56.9274 39.0395 56.6727C45.8456 55.7303 51.9545 52.9539 56.7244 48.5984C61.4943 44.2429 64.5347 38.7667 65.5947 32.5772C65.9295 30.616 65.9295 26.2859 65.5947 24.3247C63.9769 15.0023 57.7843 7.18279 48.6629 2.98009C44.3951 0.993364 40.2389 0.0764126 35.3295 0C33.879 0.0254709 32.4843 0.0254706 32.1775 0.0509415Z" fill="#008C5D"/>
<path d="M8.55371 9.60038C7.13111 9.95697 6.23849 10.2626 4.84378 10.9249C3.39329 11.6126 2.66804 12.3003 1.94279 13.7012C0.548079 16.3502 -0.121382 20.2727 0.018089 25.1631C0.129666 28.9837 0.603867 32.193 1.66385 36.0137C4.17432 45.336 10.0042 54.3018 14.9415 56.5432C15.6946 56.8743 16.0015 56.9507 17.0057 57.0017C20.3251 57.1545 23.8955 56.2121 25.7086 54.7093C26.6013 53.9452 27.2149 52.9009 27.2149 52.0858C27.2149 51.6783 24.8997 43.0436 24.3418 41.3371C24.2024 40.9041 23.2818 40.14 22.6124 39.8598C21.1898 39.2994 19.3767 39.223 17.0057 39.656C15.9457 39.8598 15.8899 39.8598 15.4157 39.6305C14.5231 39.1721 13.1284 37.4146 12.3194 35.6826C11.6221 34.2052 11.371 33.11 11.2873 31.2506C11.1758 28.5762 11.7058 26.8951 12.7099 26.6659C16.3362 25.8508 18.8188 24.0169 18.8188 22.183C18.8188 21.4189 16.0851 11.7145 15.6946 11.0777C15.2762 10.4154 14.4394 9.88056 13.4073 9.57491C12.2079 9.19285 10.1158 9.21832 8.55371 9.60038ZM12.6542 11.256C12.961 11.3324 13.4073 11.5362 13.6305 11.7145C14.0489 12.0201 14.1326 12.2748 15.4436 16.9615C16.2246 19.6614 16.8383 22.0047 16.8383 22.1575C16.8383 22.5651 15.6946 23.5584 14.6068 24.0424C14.0768 24.2716 13.1563 24.6027 12.5147 24.781C11.5942 25.0103 11.2595 25.1631 10.841 25.5197C9.78106 26.4621 9.25107 28.2451 9.25107 30.7667C9.25107 33.1355 9.69737 34.9439 10.7574 37.007C11.7058 38.8155 13.212 40.5475 14.3557 41.1588C15.3599 41.6937 15.9457 41.7446 17.2288 41.4644C19.1535 41.006 21.7198 41.1588 22.2777 41.7701C22.4171 41.9229 25.2065 51.6528 25.2065 52.0094C25.2065 52.4424 24.4813 53.2829 23.7282 53.7159C22.194 54.6329 20.2135 55.0914 17.7867 55.0914C16.3641 55.0914 16.2246 55.0914 15.6388 54.7857C12.9331 53.3339 9.80895 49.6406 7.27058 44.8011C5.62482 41.6682 4.53695 38.9683 3.58855 35.4278C2.64014 31.9638 2.16594 28.8054 2.02647 25.265C1.85911 20.1199 2.8633 15.153 4.45327 13.472C5.15062 12.7078 7.52163 11.689 9.36264 11.3069C10.3389 11.1032 11.901 11.1032 12.6542 11.256Z" fill="#008C5D"/>
<path d="M28.7482 20.0703C27.0746 20.2741 25.9588 20.6562 24.8152 21.4203C24.1457 21.9042 22.6952 23.3306 22.6952 23.5344C22.6952 23.5853 23.0299 23.8145 23.4483 24.0693L24.1736 24.5277L25.0104 23.7381C25.4567 23.3051 26.1541 22.7448 26.5446 22.5155C28.4135 21.3948 31.0914 21.4967 32.4861 22.7193C33.2392 23.3561 33.4903 23.9674 33.5182 24.9353C33.5182 25.6739 33.4624 25.9286 33.0718 26.6163C32.4303 27.788 31.0635 28.9851 26.2936 32.5256L22.3047 35.4547V36.2189V36.983H29.1388H35.9728L36.0565 36.7028C36.0844 36.55 36.0844 36.1679 36.0565 35.8623L35.9728 35.3019L30.7845 35.2764L25.5962 35.251L29.1667 32.5765C34.1876 28.8068 35.2197 27.8135 35.6939 26.1069C36.4191 23.5344 34.8571 21.1656 31.9003 20.3505C31.1193 20.0958 29.4456 19.9684 28.7482 20.0703Z" fill="#008C5D"/>
<path d="M44.2573 25.5209C41.3563 28.501 38.818 31.099 38.6506 31.3028L38.3438 31.6339L38.5948 32.2707L38.8737 32.9075L44.1178 32.9584L49.362 33.0094V34.7668C49.362 35.7347 49.3899 36.6262 49.3899 36.7281C49.3899 36.9319 49.5572 36.9573 50.394 36.9573H51.3982V34.9451V32.9329H52.9882H54.6061L54.5782 32.1688L54.5503 31.4047L52.9882 31.3792L51.4261 31.3537V25.7247V20.1211H50.4777H49.5572L44.2573 25.5209ZM49.362 26.9982C49.362 29.2651 49.3341 31.1755 49.2783 31.2519C49.2225 31.3538 48.1346 31.4047 45.122 31.3792L41.0495 31.3537L45.122 27.1256C47.3815 24.8077 49.2504 22.9229 49.2783 22.9229C49.3062 22.8974 49.362 24.7313 49.362 26.9982Z" fill="#008C5D"/>
</svg>
