<svg width="52" height="52" viewBox="0 0 52 52" fill="none" xmlns="http://www.w3.org/2000/svg">
<path d="M34.0745 29.8957C39.0688 30.5601 43.3878 31.8297 46.4593 33.4887C49.948 35.372 52 37.8478 52 40.6833C52 44.1917 48.7995 47.1796 43.6287 49.1687C39.0774 50.9208 32.8441 52 26 52C19.1602 52 12.9226 50.9166 8.37128 49.1687C3.20053 47.1839 0 44.196 0 40.6876C0 37.8097 2.11218 35.3085 5.69126 33.4125C8.84017 31.7451 13.2624 30.4797 18.3686 29.8406L18.9193 34.1193C14.3594 34.6864 10.4705 35.7868 7.76903 37.2172C5.64825 38.3387 4.40073 39.5491 4.40073 40.6876C4.40073 42.2323 6.53011 43.8236 9.97154 45.144C14.0324 46.7056 19.6979 47.6705 26 47.6705C32.3021 47.6705 37.9676 46.7056 42.0285 45.144C45.4699 43.8193 47.5993 42.228 47.5993 40.6876C47.5993 39.5745 46.3948 38.3853 44.3428 37.2807C41.723 35.8672 37.9418 34.7668 33.4894 34.1743L34.0745 29.8957ZM28.1036 18.7737V40.3024H23.7028V18.7737C19.4226 17.7918 16.2349 14.0168 16.2349 9.50956C16.2349 4.25751 20.5625 0 25.9054 0C31.2439 0 35.5715 4.25751 35.5715 9.50956C35.5715 14.021 32.3839 17.796 28.1036 18.7737Z" fill="#008C5D"/>
</svg>
