<svg width="56" height="59" viewBox="0 0 56 59" fill="none" xmlns="http://www.w3.org/2000/svg">
<path d="M25.4 36.2C33.2 36.2 46.2 46.6 46.2 46.6V5C46.2 5 33.2 15.4 25.4 15.4M25.4 36.2V15.4M25.4 36.2H12.4C6.6566 36.2 2 33.8886 2 25.8C2 17.7114 6.6566 15.4 12.4 15.4H25.4M9.8 36.2L17.6 57H28L20.2 36.2M46.2 33.6C47.2243 33.6 48.2386 33.3982 49.1849 33.0063C50.1313 32.6143 50.9911 32.0397 51.7154 31.3154C52.4397 30.5911 53.0143 29.7313 53.4063 28.7849C53.7982 27.8386 54 26.8243 54 25.8C54 24.7757 53.7982 23.7614 53.4063 22.8151C53.0143 21.8687 52.4397 21.0089 51.7154 20.2846C50.9911 19.5603 50.1313 18.9857 49.1849 18.5937C48.2386 18.2018 47.2243 18 46.2 18M25.4 46.6C28 46.6 33.2 44 33.2 38.8" stroke="#008C5D" stroke-width="4"/>
</svg>
