<svg width="52" height="52" viewBox="0 0 52 52" fill="none" xmlns="http://www.w3.org/2000/svg">
<path d="M46.2209 1.69311L1.69141 46.2227L5.77687 50.3081L50.3064 5.77858L46.2209 1.69311Z" fill="#008C5D"/>
<path d="M11.5556 23.1111C17.9371 23.1111 23.1111 17.9371 23.1111 11.5556C23.1111 5.174 17.9371 0 11.5556 0C5.174 0 0 5.174 0 11.5556C0 17.9371 5.174 23.1111 11.5556 23.1111ZM11.5556 5.77778C14.742 5.77778 17.3333 8.36911 17.3333 11.5556C17.3333 14.742 14.742 17.3333 11.5556 17.3333C8.36911 17.3333 5.77778 14.742 5.77778 11.5556C5.77778 8.36911 8.36911 5.77778 11.5556 5.77778Z" fill="#008C5D"/>
<path d="M40.4462 52.0017C46.8277 52.0017 52.0017 46.8277 52.0017 40.4462C52.0017 34.0646 46.8277 28.8906 40.4462 28.8906C34.0646 28.8906 28.8906 34.0646 28.8906 40.4462C28.8906 46.8277 34.0646 52.0017 40.4462 52.0017ZM40.4462 34.6684C43.6326 34.6684 46.224 37.2597 46.224 40.4462C46.224 43.6326 43.6326 46.224 40.4462 46.224C37.2597 46.224 34.6684 43.6326 34.6684 40.4462C34.6684 37.2597 37.2597 34.6684 40.4462 34.6684Z" fill="#008C5D"/>
</svg>
