<svg width="52" height="52" viewBox="0 0 52 52" fill="none" xmlns="http://www.w3.org/2000/svg">
<path d="M17.9536 0H6.01216C4.41838 0.0024362 2.89058 0.636603 1.76361 1.76351C0.636641 2.89041 0.00243635 4.41812 0 6.0118L0 17.9525C0.00162415 19.5467 0.63547 21.0752 1.76253 22.2028C2.88959 23.3303 4.41785 23.9649 6.01216 23.9674H17.9536C19.5484 23.9657 21.0775 23.3315 22.2052 22.2039C23.3329 21.0762 23.9672 19.5472 23.9688 17.9525V6.0118C23.9664 4.41759 23.3317 2.88941 22.2041 1.76242C21.0765 0.635432 19.5479 0.00162405 17.9536 0ZM19.9034 17.9525C19.9026 18.4693 19.6969 18.9648 19.3314 19.3302C18.9659 19.6957 18.4704 19.9014 17.9536 19.9022H6.01216C5.49528 19.9014 4.99982 19.6957 4.63433 19.3302C4.26885 18.9648 4.06316 18.4693 4.06235 17.9525V6.0118C4.06316 5.49496 4.26885 4.99952 4.63433 4.63406C4.99982 4.26859 5.49528 4.06292 6.01216 4.06211H17.9536C18.4704 4.06292 18.9659 4.26859 19.3314 4.63406C19.6969 4.99952 19.9026 5.49496 19.9034 6.0118V17.9525Z" fill="#008C5D"/>
<path d="M45.905 0H34.1233C32.5078 0.00243811 30.9592 0.645437 29.8172 1.78797C28.6752 2.93051 28.0329 4.47931 28.0312 6.0947V17.8727C28.0329 19.488 28.6752 21.0369 29.8172 22.1794C30.9592 23.3219 32.5078 23.9649 34.1233 23.9674H45.905C47.521 23.9657 49.0704 23.3231 50.2131 22.1805C51.3558 21.0378 51.9984 19.4886 52 17.8727V6.0947C51.9984 4.47878 51.3558 2.92952 50.2131 1.78689C49.0704 0.644266 47.521 0.00162567 45.905 0ZM47.9377 17.8727C47.9377 18.4117 47.7235 18.9287 47.3423 19.3099C46.9611 19.6911 46.4441 19.9053 45.905 19.9053H34.1233C33.5847 19.9044 33.0684 19.6899 32.6879 19.3088C32.3073 18.9277 32.0936 18.4112 32.0936 17.8727V6.0947C32.0936 5.55615 32.3073 5.03962 32.6879 4.65852C33.0684 4.27743 33.5847 4.06292 34.1233 4.06211H45.905C46.4441 4.06211 46.9611 4.27626 47.3423 4.65744C47.7235 5.03862 47.9377 5.55562 47.9377 6.0947V17.8727Z" fill="#008C5D"/>
<path d="M17.9536 28.0273H6.01216C4.41838 28.0298 2.89058 28.664 1.76361 29.7909C0.636641 30.9178 0.00243635 32.4455 0 34.0392L0 45.9798C0.00243635 47.5735 0.636641 49.1013 1.76361 50.2282C2.89058 51.3551 4.41838 51.9892 6.01216 51.9916H17.9536C19.5473 51.9892 21.0751 51.3551 22.2021 50.2282C23.3291 49.1013 23.9633 47.5735 23.9657 45.9798V34.0392C23.9633 32.4455 23.3291 30.9178 22.2021 29.7909C21.0751 28.664 19.5473 28.0298 17.9536 28.0273ZM19.9034 45.9798C19.9026 46.4966 19.6969 46.9921 19.3314 47.3576C18.9659 47.723 18.4704 47.9287 17.9536 47.9295H6.01216C5.49528 47.9287 4.99982 47.723 4.63433 47.3576C4.26885 46.9921 4.06316 46.4966 4.06235 45.9798V34.0392C4.06316 33.5223 4.26885 33.0269 4.63433 32.6614C4.99982 32.2959 5.49528 32.0903 6.01216 32.0894H17.9536C18.4704 32.0903 18.9659 32.2959 19.3314 32.6614C19.6969 33.0269 19.9026 33.5223 19.9034 34.0392V45.9798Z" fill="#008C5D"/>
<path d="M45.905 28.0273H34.1233C32.5078 28.0298 30.9592 28.6728 29.8172 29.8153C28.6752 30.9579 28.0329 32.5066 28.0312 34.122V45.9031C28.0329 47.5184 28.6752 49.0673 29.8172 50.2098C30.9592 51.3523 32.5078 51.9954 34.1233 51.9978H45.905C47.521 51.9962 49.0704 51.3536 50.2131 50.2109C51.3558 49.0683 51.9984 47.519 52 45.9031V34.122C51.9984 32.5061 51.3558 30.9568 50.2131 29.8142C49.0704 28.6716 47.521 28.029 45.905 28.0273ZM47.9377 45.9001C47.9377 46.4391 47.7235 46.956 47.3423 47.3372C46.9611 47.7184 46.4441 47.9326 45.905 47.9326H34.1233C33.5847 47.9318 33.0684 47.7173 32.6879 47.3362C32.3073 46.9551 32.0936 46.4386 32.0936 45.9001V34.119C32.0944 33.581 32.3085 33.0653 32.689 32.6848C33.0695 32.3044 33.5852 32.0903 34.1233 32.0894H45.905C46.4436 32.0894 46.9601 32.3032 47.3413 32.6837C47.7224 33.0642 47.9369 33.5805 47.9377 34.119V45.9001Z" fill="#008C5D"/>
</svg>
