<svg width="52" height="52" viewBox="0 0 52 52" fill="none" xmlns="http://www.w3.org/2000/svg">
<path fill-rule="evenodd" clip-rule="evenodd" d="M10.5798 5.25098C6.56741 7.35794 3.62791 12.3694 3.62791 18.3454C3.62791 24.4506 5.80277 29.1564 8.92052 33.1896C11.4901 36.5134 14.6007 39.2682 17.6344 41.9549C18.3549 42.5931 19.0711 43.2274 19.7746 43.8645C21.0469 45.0167 22.1817 46.0278 23.2757 46.7621C24.3701 47.497 25.2512 47.8324 26 47.8324C26.7488 47.8324 27.6299 47.497 28.7243 46.7621C29.8183 46.0278 30.9531 45.0167 32.2255 43.8645C32.9291 43.2274 33.6452 42.5931 34.3657 41.9549C37.3994 39.2682 40.5099 36.5134 43.0795 33.1896C46.1973 29.1564 48.3721 24.4506 48.3721 18.3454C48.3721 12.3694 45.4325 7.35794 41.4201 5.25098C37.522 3.2041 32.2843 3.74617 27.307 9.68686C26.965 10.095 26.4932 10.3256 26 10.3256C25.5068 10.3256 25.035 10.095 24.693 9.68686C19.7156 3.74617 14.4779 3.2041 10.5798 5.25098ZM26 5.3472C20.4081 -0.400169 14.1463 -1.20416 9.07161 1.46059C3.71186 4.27501 0 10.8101 0 18.3454C0 25.7512 2.68586 31.4011 6.20788 35.9569C9.02834 39.6052 12.4805 42.659 15.5294 45.3557C16.2206 45.967 16.891 46.5601 17.5286 47.1375C18.7675 48.2594 20.0975 49.4558 21.4453 50.3605C22.7927 51.2648 24.3302 52 26 52C27.6698 52 29.2073 51.2648 30.5547 50.3605C31.9026 49.4558 33.2324 48.2594 34.4714 47.1375C35.1089 46.5601 35.7794 45.967 36.4706 45.3557C39.5195 42.659 42.9716 39.6052 45.7922 35.9569C49.3141 31.4011 52 25.7512 52 18.3454C52 10.8101 48.2882 4.27501 42.9283 1.46059C37.8536 -1.20416 31.5921 -0.400169 26 5.3472Z" fill="#008C5D"/>
</svg>
