<svg width="52" height="52" viewBox="0 0 52 52" fill="none" xmlns="http://www.w3.org/2000/svg">
<path fill-rule="evenodd" clip-rule="evenodd" d="M18.5951 47.1716C18.9388 47.1716 19.2197 47.4603 19.2197 47.8168C19.2197 48.171 18.9388 48.4596 18.5951 48.4596C18.4297 48.4594 18.2711 48.3916 18.1542 48.2711C18.0372 48.1506 17.9714 47.9872 17.9712 47.8168C17.9684 47.4611 18.2485 47.1716 18.5951 47.1716ZM44.8967 20.2357C44.3671 19.9793 43.0609 19.6301 42.6516 19.2081C42.2929 18.8387 41.9904 18.4155 41.7544 17.9529C41.5183 18.4155 41.2158 18.8387 40.8571 19.2081C39.9525 20.1406 37.8769 20.7196 36.503 20.7196C35.129 20.7196 33.0535 20.1406 32.1487 19.2081C31.7899 18.8388 31.4874 18.4156 31.2514 17.9529C31.0154 18.4155 30.7129 18.8387 30.3542 19.2081C29.4494 20.1406 27.3738 20.7196 25.9999 20.7196C24.6261 20.7196 22.5505 20.1406 21.6458 19.2081C21.2871 18.8386 20.9846 18.4155 20.7485 17.9529C20.5125 18.4156 20.21 18.8388 19.8512 19.2081C18.9465 20.1406 16.871 20.7196 15.4969 20.7196C14.1234 20.7196 12.0479 20.1406 11.1429 19.2081C10.7842 18.8386 10.4817 18.4155 10.2456 17.9529C10.0096 18.4155 9.70707 18.8387 9.34832 19.2081C8.75286 19.8221 7.18118 20.2824 6.35009 20.5258C4.67949 20.7363 2.70948 20.4889 1.46666 19.2081C0.561742 18.276 0 16.9888 0 15.5731V13.5765L0.000609375 13.5488V13.5463C-3.11429e-06 13.4447 0.0250597 13.3448 0.0733281 13.2563L3.59095 1.6411C3.88101 0.683964 4.58707 0.0703326 5.9543 0.00104662L45.7704 0C46.9984 0.136583 47.7978 0.667637 48.1284 1.63052L51.9156 13.2404C51.9662 13.3267 51.9927 13.421 51.997 13.5152L51.9972 13.5166C51.9992 13.5363 52 13.5565 52 13.5765V15.5731C52 16.9888 51.4381 18.276 50.5332 19.2081C49.0592 20.7281 46.8177 20.6891 44.8967 20.2357ZM48.6853 22.92V49.3582C48.6853 50.0819 48.3944 50.7434 47.9301 51.2219C47.4655 51.7007 46.8237 52 46.1214 52H5.88006C5.17684 52 4.53375 51.7023 4.0689 51.2232L3.99801 51.1427C3.57581 50.6707 3.31551 50.043 3.31551 49.3582V22.9384C4.02127 23.0911 4.73921 23.1534 5.4339 23.1461V49.3582C5.4339 49.4685 5.47198 49.5698 5.53455 49.6479L5.56674 49.6797C5.6487 49.7641 5.76042 49.8169 5.88006 49.8169H46.1214C46.239 49.8169 46.3497 49.7635 46.4322 49.6784C46.5148 49.5933 46.5668 49.4792 46.5668 49.3582V23.0518C47.2494 23.0871 47.9404 23.056 48.6183 22.9325L48.6853 22.92ZM18.9153 27.9394C22.312 23.6142 26.2268 21.2621 29.1664 25.1093C32.695 25.301 34.1896 30.7779 31.4097 33.2228L31.3949 33.3545C31.4908 33.3269 31.5891 33.3088 31.6884 33.3005C31.9014 33.2835 32.1062 33.3194 32.2813 33.4156C32.473 33.5213 32.6201 33.6925 32.696 33.9361C32.7681 34.1662 32.7714 34.4588 32.6772 34.817L32.2349 36.1111C32.1619 36.3252 32.0947 36.4759 31.9465 36.5975C31.7944 36.7222 31.6115 36.7688 31.3296 36.7535L31.2346 36.7441C31.1967 38.1736 30.513 38.8357 29.6192 39.7007L29.6143 39.7054C29.612 39.7843 29.6131 39.8633 29.6178 39.9421C29.8712 40.2986 30.1485 40.5803 30.4627 40.7836C31.1592 41.1613 32.0494 41.2403 32.9991 41.3399L31.7981 45.7632H20.721L19.197 41.3078C20.2668 41.1059 21.3608 40.8243 22.4085 40.0667C22.4659 40.0171 22.5218 39.9658 22.5763 39.9129L22.5963 39.3756C21.9102 38.7353 21.3749 38.0651 21.2534 36.7451L21.2001 36.7456C21.0157 36.7428 20.8382 36.6997 20.6716 36.6019C20.4048 36.4454 20.2186 36.1797 20.0931 35.8803C19.9454 35.5278 19.8787 35.1159 19.863 34.8052L19.8626 34.7955C19.8579 34.6812 19.8581 34.4628 19.8636 34.2552C19.8687 34.0752 19.8778 33.9004 19.8913 33.8007C19.8958 33.7679 19.9041 33.737 19.9158 33.708C20.0976 33.1869 20.3722 33.0056 20.7318 33.0037L20.5318 32.8665C20.3993 31.1629 20.7106 28.4993 18.9153 27.9394ZM28.9593 40.3287C28.1384 41.0341 27.2554 41.3777 26.3591 41.3781C25.3295 41.3785 24.2994 40.9252 23.3422 40.048L23.2427 39.9583C23.6296 43.4733 28.378 43.7562 28.9593 40.3287ZM33.6494 47.1716C33.9931 47.1716 34.2726 47.4603 34.2726 47.8168C34.2726 48.171 33.9931 48.4596 33.6494 48.4596C33.3049 48.4596 33.024 48.171 33.024 47.8168C33.024 47.4611 33.3049 47.1716 33.6494 47.1716ZM17.4293 41.6463C15.4595 42.1081 13.1985 43.1061 12.2238 47.508L11.8497 48.9852H16.5791V46.7015C16.5791 46.1858 16.991 45.7632 17.4915 45.7632H18.4647C18.4226 44.1308 17.6307 42.4181 17.4293 41.6463ZM40.1587 48.9852L39.728 47.2555C38.879 43.315 36.6234 42.0988 34.8351 41.6329C34.6543 42.4039 34.0985 44.2276 34.069 45.7597H34.755C35.2555 45.7597 35.666 46.1829 35.666 46.6986V48.9852H40.1587ZM21.3525 33.9113C20.977 33.7765 20.7103 33.7131 20.6085 33.9432C20.6003 34.0248 20.5944 34.1479 20.5911 34.2757C20.586 34.464 20.586 34.6622 20.5903 34.7634L20.5905 34.7669C20.6024 35.0054 20.6527 35.3192 20.7634 35.5833C20.8321 35.7471 20.921 35.8847 21.0311 35.9494C21.0848 35.9809 21.1448 35.9951 21.2086 35.9959C21.2889 35.9969 21.3788 35.9799 21.474 35.9511C21.5281 35.9318 21.5859 35.926 21.6426 35.9341C21.6993 35.9422 21.7533 35.964 21.8003 35.9977C21.8473 36.0314 21.886 36.076 21.9131 36.1279C21.9403 36.1799 21.9551 36.2377 21.9565 36.2967C21.9923 37.8555 22.6654 38.4528 23.4833 39.1787L23.8272 39.4864C24.6488 40.2394 25.5135 40.6286 26.3591 40.6284C27.1814 40.6282 28.0043 40.2578 28.7718 39.4939L29.12 39.1537C29.9786 38.3227 30.6104 37.7114 30.4896 36.2227C30.4839 36.1391 30.505 36.056 30.5495 35.9859C30.6025 35.9029 30.6853 35.845 30.7797 35.8249C30.8741 35.8048 30.9724 35.8241 31.053 35.8786C31.1075 35.9161 31.166 35.9471 31.2273 35.9709C31.2745 35.9905 31.3213 36.0013 31.3668 36.0038L31.4931 36.0097C31.4976 36.0059 31.5172 35.95 31.5475 35.8612L31.975 34.6126C32.028 34.4065 32.0329 34.2603 32.0034 34.1653C31.9904 34.1217 31.9673 34.093 31.9389 34.0773C31.8931 34.0521 31.824 34.0437 31.7426 34.0502C31.5593 34.0649 31.3447 34.1564 31.1537 34.3051C31.0954 34.3503 31.0252 34.3765 30.9523 34.3802C30.8794 34.3839 30.807 34.365 30.7447 34.3259C30.6823 34.2868 30.6327 34.2293 30.6024 34.1609C30.5721 34.0924 30.5624 34.0162 30.5746 33.942C30.8903 32.0401 30.746 30.8015 30.3537 29.9581C30.0143 29.2288 29.4736 28.7832 28.886 28.4503C27.5611 29.4926 26.6261 29.6118 25.694 29.7303C24.9271 29.8277 24.1613 29.9254 23.1489 30.6473C22.6681 30.9896 22.3495 31.4034 22.187 31.8842C22.0231 32.3694 22.0113 32.9349 22.1458 33.5757C22.1667 33.6516 22.1637 33.7325 22.1373 33.8066C22.1039 33.9 22.0359 33.9761 21.9482 34.018C21.8605 34.0599 21.7603 34.0642 21.6695 34.03C21.5653 33.9906 21.4574 33.9458 21.3525 33.9113Z" fill="#008C5D"/>
</svg>
