<svg width="52" height="52" viewBox="0 0 52 52" fill="none" xmlns="http://www.w3.org/2000/svg">
<path d="M48.6663 38.3407C46.8371 35.6477 44.9198 34.3225 44.8316 34.2584C44.1705 33.8096 43.2669 33.9592 42.7821 34.6004C42.3193 35.2416 42.4735 36.1179 43.1347 36.5881C43.2008 36.6309 49.5037 41.0765 49.063 50.5236C49.0189 51.3144 49.658 51.977 50.4514 51.9984C50.4734 51.9984 50.4955 51.9984 50.5175 51.9984C51.2888 51.9984 51.95 51.3999 51.972 50.6519C52.2585 44.9238 50.3412 40.7987 48.6663 38.3407Z" fill="#008C5D"/>
<path d="M26.1866 0C22.0214 0 18.0986 1.58164 15.1455 4.44568C12.1923 7.28835 10.5615 11.1142 10.5615 15.1538C10.5615 19.1934 12.1923 22.9978 15.1455 25.8619C16.1151 26.8023 17.173 27.5931 18.319 28.2343C16.5559 28.8114 14.4182 29.6664 12.2584 30.9488C9.08494 32.8296 6.46239 35.1807 4.45691 37.9806C1.96659 41.4645 0.467989 45.611 0.00518585 50.2918C-0.0609289 51.0612 0.512065 51.7665 1.32748 51.8306C1.37156 51.8306 1.41563 51.8306 1.45971 51.8306C2.20901 51.8306 2.84812 51.2749 2.91423 50.5482C3.33296 46.359 4.63322 42.6828 6.815 39.6264C8.55602 37.1685 10.848 35.0952 13.6689 33.4281C17.9002 30.9274 22.0434 30.1366 23.0351 29.987C24.0489 30.1793 25.1067 30.2862 26.1646 30.2862C30.3298 30.2862 34.2526 28.7046 37.2057 25.8405C40.1589 22.9765 41.7897 19.172 41.7897 15.1324C41.7897 11.0928 40.1589 7.28835 37.2057 4.42431C34.2746 1.58164 30.3518 0 26.1866 0ZM26.1866 27.4649C19.1785 27.4649 13.4926 21.9505 13.4926 15.1538C13.4926 8.35702 19.1785 2.84267 26.1866 2.84267C33.1948 2.84267 38.8806 8.35702 38.8806 15.1538C38.8806 21.9505 33.1727 27.4649 26.1866 27.4649Z" fill="#008C5D"/>
</svg>
