<svg width="52" height="52" viewBox="0 0 52 52" fill="none" xmlns="http://www.w3.org/2000/svg">
<path d="M7.97081 14.2105L9.03524 33.4352L15.5893 33.5221L18.4459 0H14.121L12.366 20.5868L11.1556 0H4.6378L1.78125 33.3405L6.17064 33.3984L7.97081 14.2105Z" fill="#008C5D"/>
<path d="M27.8235 33.5221L28.5606 24.8681H23.3186L23.6549 21.1337H28.3362L29.1418 12.3884H24.443L24.7466 9.01814H29.9116L30.68 0H20.0953L17.2383 33.5221H27.8235Z" fill="#008C5D"/>
<mask id="mask0_5703_13072" style="mask-type:luminance" maskUnits="userSpaceOnUse" x="31" y="0" width="21" height="34">
<path d="M31.6406 0.00390625H51.9978V33.6485H31.6406V0.00390625Z" fill="white"/>
</mask>
<g mask="url(#mask0_5703_13072)">
<path d="M40.6281 12.9559L40.2327 33.526H45.995L52.0014 0.00390625H47.0666L44.0538 20.4994L44.6686 0.00390625H39.0621L35.8128 20.4994L36.4156 0.00390625H31.7109V33.526H37.6005L40.6281 12.9559Z" fill="#008C5D"/>
</g>
<mask id="mask1_5703_13072" style="mask-type:luminance" maskUnits="userSpaceOnUse" x="41" y="36" width="6" height="17">
<path d="M41.2734 36.5H46.8907V52.0025H41.2734V36.5Z" fill="white"/>
</mask>
<g mask="url(#mask1_5703_13072)">
<path d="M46.0897 37.6374C45.658 36.9034 45.0794 36.6261 44.4753 36.625C43.3115 36.6295 42.0079 38.1475 41.9819 41.5211C41.9622 44.0137 42.6711 45.0105 43.3634 45.5841C44.1663 46.2368 44.7032 46.4473 44.6706 47.2581C44.6643 48.0344 44.2966 48.4587 43.9715 48.4599C43.968 48.4599 43.9644 48.4599 43.9603 48.4599C43.6827 48.4599 43.5013 48.4086 43.3795 48.1469C43.2559 47.825 43.1941 47.4096 43.1982 46.6556L43.1995 46.4729H41.3626L41.3577 46.6455C41.3546 46.7536 41.3528 46.8616 41.3519 46.9674C41.3295 50.5192 42.5211 51.9871 43.8041 51.9916C45.0557 51.9871 46.4466 50.3287 46.4748 46.7357C46.4918 44.9649 46.1326 43.4969 45.1345 42.6137C44.8479 42.3542 44.4964 42.215 44.2228 42.0056C43.942 41.7929 43.7772 41.53 43.7857 41.1391C43.7915 40.3661 44.1041 40.1679 44.3956 40.1579C44.3961 40.1579 44.3974 40.1579 44.3978 40.1579C44.5882 40.1579 44.7543 40.2392 44.8577 40.4419C44.9607 40.6435 45.0225 40.9074 45.0212 41.403L45.0207 41.4855V41.6626H46.7788L46.7815 41.4832L46.7829 41.3295C46.7967 39.5754 46.5213 38.3692 46.0897 37.6374Z" fill="#008C5D"/>
</g>
<path d="M3.18479 43.5478H2.60623L2.84043 41.0028H3.37779C3.74544 41.0217 4.05801 41.1587 4.05219 42.1054C4.03651 42.973 3.87083 43.5188 3.18479 43.5478ZM5.48696 38.1415C5.17618 37.3419 4.72748 36.9688 4.19414 36.9688C4.19369 36.9688 4.19325 36.9688 4.1928 36.9688H1.31699L0 51.6537H1.87541L2.26321 47.3223H3.38093C4.90973 47.3167 5.9276 44.7584 5.95133 41.7646C5.96252 40.1485 5.79773 38.9423 5.48696 38.1415Z" fill="#008C5D"/>
<path d="M9.05907 43.227H8.2266L8.45184 40.7422H9.3385C9.75764 40.76 9.84228 41.3113 9.84675 41.8047C9.8369 42.5587 9.61614 43.2125 9.05907 43.227ZM11.2058 37.7395C10.8575 37.1481 10.3814 36.9699 9.85034 36.9688H6.91094L5.60156 51.6537H7.46891L7.91761 46.6585L8.61395 46.6596C9.07877 46.6785 9.23998 47.1474 9.24043 47.7823C9.2364 48.4706 9.14281 49.3516 9.13743 50.0677C9.13251 50.7104 9.13654 51.1403 9.2046 51.5446L9.22251 51.6537H11.0514L11.0102 51.4009C10.9443 51.0011 10.9287 50.3974 10.9331 49.7213C10.9376 49.1199 10.9573 48.4594 10.9613 47.8224C10.9721 46.6563 10.9233 45.4723 10.5377 44.9199C11.273 44.412 11.7387 42.8851 11.7495 40.9014C11.762 39.3511 11.5565 38.332 11.2058 37.7395Z" fill="#008C5D"/>
<mask id="mask2_5703_13072" style="mask-type:luminance" maskUnits="userSpaceOnUse" x="24" y="36" width="7" height="17">
<path d="M24.3047 36.7852H30.6098V52.0025H24.3047V36.7852Z" fill="white"/>
</mask>
<g mask="url(#mask2_5703_13072)">
<path d="M30.5185 36.9727H28.708L27.9884 44.9806C27.8473 46.5677 27.6292 48.0646 26.9696 48.0646C26.9683 48.0646 26.9669 48.0646 26.9651 48.0646C26.3919 48.0479 26.3946 47.1246 26.387 46.5566C26.3879 46.4831 26.3897 46.4185 26.3897 46.3617C26.3901 46.1813 26.443 45.4428 26.4851 45.0174L27.2034 36.9727H25.3038L24.4722 46.2436C24.4458 46.5733 24.401 47.1302 24.3988 47.4443C24.3898 48.6338 24.5685 49.7854 24.9693 50.6285C25.3705 51.4705 25.9876 51.9996 26.8505 51.9996C26.8563 51.9996 26.8621 51.9996 26.868 51.9996C28.3108 51.9996 29.4137 50.3378 29.7429 46.6602L30.6076 36.9727H30.5185Z" fill="#008C5D"/>
</g>
<mask id="mask3_5703_13072" style="mask-type:luminance" maskUnits="userSpaceOnUse" x="30" y="36" width="7" height="17">
<path d="M30.4922 36.5H36.2241V52.0025H30.4922V36.5Z" fill="white"/>
</mask>
<g mask="url(#mask3_5703_13072)">
<path d="M34.3701 42.6661H36.1708V42.4801C36.1757 38.1241 35.0136 36.625 33.7423 36.625C33.7325 36.625 33.7226 36.625 33.7128 36.625C31.7348 36.6339 30.5369 40.5889 30.5007 45.2912C30.4872 47.2369 30.6775 48.9132 31.0891 50.1071C31.4997 51.3011 32.1293 51.9927 32.9672 51.9927C32.9681 51.9927 32.969 51.9927 32.9699 51.9927C32.9717 51.9927 32.9739 51.9927 32.9761 51.9927C35.3782 51.9927 35.8851 47.5477 35.9939 46.0653L36.0105 45.8514H34.1458L34.1328 45.9951C34.0124 47.2124 33.7289 48.0522 33.2193 48.0578C32.4809 48.0556 32.3958 46.3938 32.398 45.2121C32.4043 44.2242 32.4997 43.0392 32.7066 42.1214C32.9161 41.2015 33.2233 40.561 33.6774 40.5599C34.1718 40.5833 34.3693 41.1558 34.3715 42.3665L34.3701 42.4867V42.6661Z" fill="#008C5D"/>
</g>
<path d="M42.0692 36.9688H37.0202L36.6602 41.0028H38.2351L37.2857 51.6548H39.1849L40.1342 41.0017L41.7087 41.0028L42.0692 36.9688Z" fill="#008C5D"/>
<path d="M21.8949 46.0515C21.6866 46.9258 21.3597 47.6163 20.8143 47.6197H20.0611L20.6576 41.0028H21.2424C21.8152 41.0373 22.1792 41.4171 22.1779 43.4898C22.1734 44.1225 22.1013 45.1794 21.8949 46.0515ZM21.7874 36.9688H19.1104L17.793 51.6548H20.6912C20.6943 51.6548 20.6979 51.6548 20.7015 51.6548C22.7032 51.6548 23.9494 48.3158 24.0743 43.4776C24.0784 43.3139 24.0815 43.1524 24.0824 42.9953C24.1106 38.577 22.8182 36.9743 21.7874 36.9688Z" fill="#008C5D"/>
<mask id="mask4_5703_13072" style="mask-type:luminance" maskUnits="userSpaceOnUse" x="11" y="36" width="7" height="17">
<path d="M11.9219 36.5H17.8831V52.0025H11.9219V36.5Z" fill="white"/>
</mask>
<g mask="url(#mask4_5703_13072)">
<path d="M15.6635 46.3259C15.4445 47.3394 15.1194 48.0544 14.6268 48.0578C13.9927 48.0489 13.8333 46.9084 13.8337 45.632C13.8405 44.594 13.9345 43.3009 14.1512 42.2907C14.3698 41.2783 14.6953 40.5622 15.1879 40.5599C15.822 40.5677 15.981 41.7093 15.9805 42.9857C15.9738 44.0248 15.8793 45.3168 15.6635 46.3259ZM17.1968 38.1731C16.74 37.1073 16.0768 36.625 15.2627 36.625C13.2856 36.6339 11.9754 40.6435 11.9382 45.5318C11.923 47.6323 12.1621 49.2584 12.6175 50.3521C13.0725 51.4459 13.7357 51.9927 14.5516 51.9927C16.5291 51.9838 17.8389 47.9743 17.8761 43.0859C17.8918 40.8673 17.6535 39.2379 17.1968 38.1731Z" fill="#008C5D"/>
</g>
</svg>
