<svg width="52" height="52" viewBox="0 0 52 52" fill="none" xmlns="http://www.w3.org/2000/svg">
<path d="M14.2811 22.8273H18.5141V25.897H14.2811V22.8273ZM28.2948 20.4374H46.0069V22.4152H28.2948V20.4374ZM28.2948 29.1315H46.0069V31.1094H28.2948V29.1315ZM39.3008 19.9842C40.6598 19.9842 41.7738 18.9334 41.7738 17.6561C41.7738 16.3788 40.6598 15.3281 39.3008 15.3281C37.9417 15.3281 36.8278 16.3788 36.8278 17.6561C36.8278 18.9334 37.9417 19.9842 39.3008 19.9842ZM34.8895 19.8193C35.7361 19.8193 36.4045 19.1807 36.4045 18.3978C36.4045 17.5943 35.7361 16.9762 34.8895 16.9762C34.0428 16.9762 33.3745 17.6149 33.3745 18.3978C33.3745 19.2013 34.0428 19.8193 34.8895 19.8193ZM31.7926 19.9636C32.3496 19.9636 32.7729 19.5515 32.7729 19.0365C32.7729 18.5214 32.3496 18.1094 31.7926 18.1094C31.2356 18.1094 30.8123 18.5214 30.8123 19.0365C30.8123 19.5309 31.2579 19.9636 31.7926 19.9636ZM35.5578 25.3613H41.7961V28.3899H35.5578V25.3613ZM31.8149 25.3613H33.7532V28.3899H31.8149V25.3613ZM16.4644 15.0602C18.581 15.0602 20.2742 16.6466 20.2742 18.5832C20.2742 20.5198 18.5587 22.1062 16.4644 22.1062C14.3702 22.1062 12.6547 20.5198 12.6547 18.5832C12.6547 16.6466 14.3479 15.0602 16.4644 15.0602ZM10.6941 28.1426C10.6941 27.8748 10.9392 27.7306 11.1397 27.7306C11.4293 27.7306 11.5853 27.916 11.5853 28.1426V33.2314H13.479V25.897V22.8273H11.9863C9.31277 22.8273 7.64181 24.8463 7.64181 27.401V33.2314H10.6273V28.1426H10.6941ZM26.557 0L0 5.23297V8.01427L1.93831 7.99366V8.01427V52H50.0617V34.3439V8.01427H52V5.15055L26.557 0ZM46.8535 34.3439H5.21337V8.01427H46.8535V34.3439ZM19.2716 25.897V33.2314H21.2099V28.1426C21.2099 27.8748 21.455 27.7306 21.6555 27.7306C21.9452 27.7306 22.1011 27.9572 22.1011 28.1426V33.2314H25.0865V27.4628C25.1311 24.8875 23.4602 22.8479 20.7421 22.8479H19.2271V25.9176H19.2716V25.897Z" fill="#008C5D"/>
</svg>
