<svg width="52" height="52" viewBox="0 0 52 52" fill="none" xmlns="http://www.w3.org/2000/svg">
<path d="M52 16.3704L43.8286 0H8.17143L0 16.3704C0 20.2222 2.37714 23.1111 5.2 23.1111C8.02286 23.1111 10.4 20.2222 10.4 16.3704C10.4 20.0296 12.7771 23.1111 15.6 23.1111C18.4229 23.1111 20.8 20.2222 20.8 16.3704C20.8 20.0296 23.1771 23.1111 26 23.1111C28.8229 23.1111 31.2 20.2222 31.2 16.3704C31.2 20.0296 33.5771 23.1111 36.4 23.1111C39.2229 23.1111 41.6 20.2222 41.6 16.3704C41.6 20.0296 43.9771 23.1111 46.8 23.1111C49.6229 23.1111 52 20.2222 52 16.3704ZM46.8 30.8148C45.1657 30.8148 43.68 30.4296 42.3429 29.6593V44.2963H9.65714V29.6593C8.32 30.4296 6.83429 30.8148 5.2 30.8148C4.75429 30.8148 4.16 30.8148 3.71429 30.6222V52H48.2857V30.6222C47.84 30.8148 47.2457 30.8148 46.8 30.8148Z" fill="#008C5D"/>
</svg>
