<svg width="56" height="52" viewBox="0 0 56 52" fill="none" xmlns="http://www.w3.org/2000/svg">
<path d="M24.6321 33.0442L24.6203 33.0186C24.383 32.9665 24.147 32.9092 23.9127 32.8467L23.895 32.8412C21.6523 32.2425 19.5813 31.1861 17.8327 29.7491C15.909 28.1705 14.4297 26.1782 13.5237 23.9457C12.6177 21.7133 12.3125 19.3086 12.6347 16.9413C12.957 14.5739 13.8969 12.3159 15.3725 10.364C16.8481 8.4121 18.8146 6.82563 21.1005 5.74291C23.3865 4.66019 25.9224 4.11411 28.4873 4.15226C31.0522 4.19042 33.5681 4.81166 35.8156 5.96181C38.0632 7.11197 39.9741 8.75612 41.3819 10.7509C42.7897 12.7457 43.6515 15.0306 43.8922 17.4062C43.9688 18.1614 43.3025 18.7777 42.4867 18.7777C41.6729 18.7777 41.0222 18.1614 40.9279 17.4081C40.668 15.3295 39.8228 13.3516 38.4778 11.6743C37.1328 9.99704 35.3355 8.6798 33.2678 7.85577C31.2 7.03174 28.9351 6.73013 26.7019 6.98143C24.4686 7.23273 22.3463 8.02803 20.5494 9.28694C18.7525 10.5458 17.3448 12.2237 16.4685 14.151C15.5922 16.0783 15.2784 18.1866 15.5588 20.2628C15.8392 22.339 16.7039 24.3096 18.0655 25.9753C19.4271 27.641 21.2373 28.9428 23.3131 29.7491L23.3917 29.7802C23.7849 29.9301 24.1898 30.0618 24.6026 30.177C24.9506 29.3949 25.5793 28.7493 26.3817 28.3503C27.1841 27.9512 28.1105 27.8234 29.0028 27.9887C29.8952 28.1539 30.6983 28.602 31.2752 29.2565C31.8522 29.9109 32.1672 30.7313 32.1667 31.5777C32.1676 32.4182 31.8572 33.2333 31.2878 33.8859C30.7184 34.5385 29.9248 34.9887 29.0404 35.1608C28.1561 35.333 27.2349 35.2165 26.4321 34.831C25.6292 34.4455 24.9936 33.8145 24.6321 33.0442ZM22.6939 35.3701C19.2026 34.3585 16.1067 32.417 13.7892 29.7857C12.3537 29.9421 11.0299 30.5835 10.0692 31.588C9.10857 32.5926 8.57795 33.8903 8.57813 35.2348V36.5422C8.57813 43.3409 16.8538 48.0348 28.2353 48.0348C39.6168 48.0348 47.8924 43.083 47.8924 36.5422V35.2348C47.8924 33.7799 47.2711 32.3846 46.1652 31.3558C45.0592 30.3271 43.5593 29.7491 41.9953 29.7491H34.8302C35.2939 31.1937 35.1945 32.7443 34.5494 34.1274C33.9044 35.5105 32.7551 36.6373 31.3043 37.3093C29.8534 37.9812 28.1941 38.1552 26.6189 37.8004C25.0437 37.4457 23.6537 36.585 22.6939 35.3701ZM38.0638 18.7777C38.0638 16.0129 36.7468 13.5352 34.6612 11.8584C33.6147 11.0186 32.3897 10.3936 31.0659 10.0241C29.7422 9.65464 28.3496 9.549 26.9791 9.71409C25.6085 9.87919 24.2907 10.3113 23.1118 10.9822C21.933 11.6532 20.9194 12.5478 20.1374 13.6078C19.3554 14.6678 18.8225 15.8693 18.5735 17.1339C18.3245 18.3985 18.365 19.6977 18.6923 20.9467C19.0196 22.1957 19.6264 23.3665 20.4731 24.3826C21.3198 25.3986 22.3873 26.2372 23.606 26.8435C24.8711 25.7696 26.5226 25.1753 28.2353 25.1777C29.9485 25.1756 31.6005 25.7698 32.8665 26.8435C34.4369 26.0631 35.75 24.9004 36.6654 23.4798C37.5808 22.0592 38.0641 20.434 38.0638 18.7777Z" fill="white"/>
</svg>
